<svg version="1.1" xmlns="http://www.w3.org/2000/svg" xmlns:xlink="http://www.w3.org/1999/xlink" width="315" height="280.2789115905762" enable-background="new 0 0 430.224 402.041" xml:space="preserve" style=""><rect id="backgroundrect" width="100%" height="100%" x="0" y="0" fill="none" stroke="none" style="" class="selected"/>









































































































































































































<g class="currentLayer" style=""><title>Layer 1</title><g id="svg_1">
	<g id="svg_2">
		<g id="svg_3">
			<path fill="#171616" d="M66.032-524.801l0.03,34.187c-0.001,2.092-0.212,3.486-0.622,4.185c-0.642,1.08-1.637,1.677-2.993,1.792     l-0.002,4.411l1.202-0.23c2.257-0.428,4.017-1.396,5.275-2.905c1.07-1.237,1.601-3.386,1.601-6.438l-0.029-35.005L66.032-524.801     z" id="svg_4"/>
			<path fill="#171616" d="M97.868-524.514c-4.635-0.147-8.633,1.504-11.983,4.967c-3.351,3.467-5.022,7.614-5.021,12.453     c-0.001,4.637,1.555,8.639,4.666,12.005c3.11,3.358,6.904,5.096,11.391,5.214c4.637,0.147,8.636-1.506,12.01-4.973     c3.37-3.465,5.058-7.574,5.056-12.33c-0.008-4.644-1.572-8.65-4.698-12.036C106.156-522.593,102.346-524.359,97.868-524.514z      M106.035-497.965c-2.509,2.723-5.536,3.982-9.09,3.793c-3.324-0.116-6.136-1.482-8.443-4.103     c-2.306-2.618-3.419-5.677-3.346-9.173c0.034-3.537,1.26-6.559,3.677-9.068c2.416-2.506,5.345-3.739,8.781-3.701     c3.286-0.003,6.091,1.236,8.414,3.722c2.325,2.486,3.543,5.476,3.658,8.97C109.763-503.871,108.548-500.686,106.035-497.965z" id="svg_5"/>
			<path fill="#171616" d="M157.332-508.076c-0.001-4.1-1.527-7.812-4.578-11.137c-3.169-3.361-6.901-5.179-11.197-5.447     c-4.787-0.266-8.938,1.391-12.46,4.971s-5.228,7.848-5.112,12.795c0.078,4.68,1.818,8.709,5.21,12.09     c3.39,3.383,7.29,5.038,11.7,4.953c3.502-0.039,6.689-1.104,9.55-3.199c2.863-2.087,4.896-4.912,6.102-8.471l-4.58,0.004     c-2.183,4.758-5.815,7.178-10.903,7.257c-3.279,0.044-6.124-1.016-8.539-3.187c-2.411-2.159-3.788-4.904-4.13-8.232l28.939-0.023     L157.332-508.076z M128.393-509.74c0.601-3.133,2.06-5.668,4.375-7.601c2.319-1.937,5.021-2.886,8.11-2.852     c3.092,0.04,5.749,1.013,7.972,2.931c2.224,1.904,3.637,4.415,4.244,7.506L128.393-509.74z" id="svg_6"/>
			<polygon fill="#171616" points="166.821,-528.739 166.836,-490.679 171.131,-490.685 171.113,-528.746    " id="svg_7"/>
		</g>
		<g id="svg_8">
			<path fill="#0085B7" d="M199.405-524.412c-4.638-0.154-8.641,1.504-12.011,4.968c-3.372,3.466-5.057,7.575-5.052,12.333     c0,0.035-0.001,0.113-0.001,0.229l0.018,27.905l4.179-0.005l-0.005-16.646c3.202,3.712,7.179,5.66,11.924,5.849     c4.64,0.152,8.631-1.501,11.982-4.969c3.354-3.458,5.027-7.608,5.027-12.444c-0.003-4.641-1.563-8.646-4.669-12.008     C207.682-522.562,203.887-524.297,199.405-524.412z M207.424-497.804c-2.422,2.489-5.335,3.729-8.741,3.733     c-3.332,0.004-6.173-1.24-8.522-3.727c-2.348-2.484-3.555-5.471-3.637-8.97c-0.075-3.648,1.144-6.837,3.661-9.56     c2.517-2.719,5.548-3.983,9.107-3.794c3.332,0.118,6.154,1.483,8.466,4.104c2.307,2.621,3.448,5.678,3.411,9.172     C211.097-503.307,209.848-500.293,207.424-497.804z" id="svg_9"/>
			<path fill="#0085B7" d="M242.307-524.499c-4.635-0.15-8.63,1.503-11.981,4.968c-3.35,3.46-5.029,7.615-5.024,12.447     c-0.001,4.641,1.555,8.643,4.666,12.007c3.112,3.364,6.91,5.099,11.395,5.213c4.635,0.149,8.636-1.51,12.003-4.969     c3.373-3.46,5.061-7.574,5.058-12.331c-0.005-4.642-1.57-8.652-4.698-12.037C250.593-522.576,246.79-524.351,242.307-524.499z      M250.477-497.954c-2.513,2.726-5.54,3.989-9.092,3.795c-3.321-0.112-6.139-1.483-8.443-4.101     c-2.306-2.625-3.424-5.68-3.348-9.175c0.037-3.538,1.267-6.56,3.682-9.063c2.414-2.51,5.343-3.744,8.775-3.707     c3.289-0.005,6.091,1.236,8.414,3.721c2.324,2.489,3.548,5.476,3.662,8.972C254.203-503.858,252.983-500.672,250.477-497.954z" id="svg_10"/>
			<path fill="#0085B7" d="M276.102-523.129c-1.769,0.969-3.109,2.342-4.006,4.121l-0.006-4.7l-4.015,0.003l0.015,33.066     l4.521-0.003l-0.008-19.781c0.002-2.127,0.357-3.831,1.071-5.104c0.451-0.773,1.301-1.684,2.545-2.732     c1.242-1.043,2.86-1.605,4.859-1.685l-0.003-4.407C279.381-524.427,277.72-524.018,276.102-523.129z" id="svg_11"/>
			<path fill="#0085B7" d="M302.839-524.484c-4.637-0.15-8.643,1.508-12.012,4.967c-3.369,3.469-5.055,7.578-5.054,12.337     c0,0.036-0.001,0.113,0.003,0.231l0.009,27.9l4.183-0.001l-0.008-16.646c3.208,3.708,7.184,5.66,11.931,5.849     c4.636,0.154,8.626-1.503,11.982-4.967c3.35-3.464,5.027-7.613,5.022-12.449c-0.003-4.638-1.558-8.643-4.669-12.006     C311.118-522.631,307.323-524.369,302.839-524.484z M310.857-497.873c-2.423,2.485-5.332,3.732-8.741,3.732     c-3.332,0.003-6.17-1.238-8.52-3.721c-2.351-2.486-3.56-5.477-3.639-8.974c-0.077-3.651,1.142-6.839,3.658-9.56     c2.518-2.721,5.554-3.986,9.114-3.795c3.33,0.114,6.147,1.483,8.461,4.104c2.307,2.624,3.447,5.68,3.411,9.175     C314.526-503.375,313.281-500.363,310.857-497.873z" id="svg_12"/>
			<path fill="#0085B7" d="M361.797-507.291c0.147-4.604-1.358-8.593-4.525-11.977c-3.167-3.383-7.012-5.15-11.534-5.302     c-4.679-0.189-8.687,1.448-12.036,4.913c-3.357,3.462-5.027,7.611-5.025,12.445c-0.002,4.641,1.562,8.643,4.676,12.006     c3.116,3.36,6.89,5.118,11.322,5.27c5.064,0.153,9.341-1.821,12.83-5.924l0.006,5.163l4.295-0.004l-0.009-16.359L361.797-507.291     z M353.851-498.043c-2.513,2.696-5.54,3.97-9.089,3.816c-3.288-0.153-6.094-1.535-8.413-4.151     c-2.325-2.615-3.456-5.665-3.381-9.156c0.037-3.523,1.263-6.534,3.679-9.014c2.418-2.483,5.344-3.728,8.78-3.726     c3.29-0.004,6.099,1.236,8.443,3.714c2.343,2.478,3.556,5.462,3.631,8.953C357.579-503.924,356.36-500.738,353.851-498.043z" id="svg_13"/>
			<path fill="#0085B7" d="M376.268-501.035l-0.01-18.679l7.461-0.007v-4.119l-7.461,0.006l-0.003-4.879l-4.295,0.002l0.01,28.432     c0.008,6.848,3.926,10.269,11.766,10.262l-0.003-3.654C378.762-493.671,376.274-496.123,376.268-501.035z" id="svg_14"/>
			<path fill="#0085B7" d="M397.464-501.049l-0.006-18.684l7.461-0.002l-0.005-4.122l-7.459,0.007l-0.005-4.876h-4.296l0.014,28.431     c0.005,6.848,3.923,10.269,11.763,10.264l-0.002-3.656C399.956-493.685,397.467-496.135,397.464-501.049z" id="svg_15"/>
			<path fill="#0085B7" d="M438.092-519.32c-3.128-3.383-6.934-5.152-11.418-5.301c-4.633-0.154-8.627,1.506-11.98,4.967     c-3.35,3.462-5.023,7.614-5.025,12.445c0.005,4.643,1.561,8.646,4.672,12.01c3.109,3.359,6.905,5.095,11.389,5.209     c4.635,0.157,8.64-1.5,12.01-4.965c3.37-3.464,5.054-7.574,5.053-12.333C442.792-511.927,441.224-515.938,438.092-519.32z      M434.846-498.073c-2.509,2.716-5.542,3.983-9.089,3.792c-3.325-0.113-6.139-1.484-8.443-4.102     c-2.304-2.623-3.419-5.68-3.349-9.178c0.036-3.533,1.258-6.555,3.676-9.061c2.422-2.51,5.345-3.742,8.778-3.707     c3.288-0.001,6.095,1.24,8.418,3.724c2.323,2.485,3.547,5.475,3.658,8.972C438.574-503.982,437.356-500.794,434.846-498.073z" id="svg_16"/>
		</g>
	</g>
	
		<text transform="matrix(0.9953 0.0036 -0.0037 1 60.8794 -449.5039)" font-family="'CaviarDreams'" font-size="19.4771" letter-spacing="9.042" id="svg_17">CREATIVIDAD + DISEÑO</text>
	<path fill-rule="evenodd" clip-rule="evenodd" fill="#171616" d="M335.697-834.685c52.003,10.254,71.865,47.998,70.662,86.036   c-1.725,54.559-66.917,99.173-131.417,66.084l-2.117-17.647c53.326,24.846,97.563-8.142,99.202-58.259   c0.782-23.93-17.666-65.996-57.667-66.123c-28.88-0.092-47.568,20.766-51.242,33.109c-12.705,42.691,10.087,151.947-2.261,183.16   c-22.378,56.574-87.282,48.027-87.282,48.027c38.645-1.277,63.93-24.033,71.077-47.092c7.956-25.665-12.89-149.967-1.651-180.254   C265.087-847.165,335.697-834.685,335.697-834.685z" id="svg_18"/>
	<g id="svg_19">
		<defs>
			<path id="SVGID_1_" d="M194.426-569.51c-83.51,9.099-99.434-44.795-97.605-77.859c2.606-47.176,53.648-84.733,106.772-74.186     c10.409,2.066,15.557,3.82,26.009,7.884l1.354,18.793c-10.099-2.892-14.397-6.065-30.746-6.862     c-44.047-2.147-66.56,36.03-66.202,64.474C134.731-580.107,181.773-568.477,194.426-569.51z"/>
		</defs>
		<clipPath id="SVGID_2_">
			<use xlink:href="#SVGID_1_" overflow="visible" id="svg_20"/>
		</clipPath>
		<path clip-path="url(#SVGID_2_)" fill-rule="evenodd" clip-rule="evenodd" fill="#171616" d="M285.408-646.186    c0.027,42.621-43.439,77.191-97.093,77.211c-53.653,0.021-97.17-34.512-97.203-77.136c-0.025-42.622,43.441-77.194,97.097-77.216    C241.856-723.35,285.374-688.813,285.408-646.186z" id="svg_21"/>
		<path clip-path="url(#SVGID_2_)" fill-rule="evenodd" clip-rule="evenodd" fill="#0085B7" d="M253.292-623.762    c0.026,35.697-37.593,64.652-84.023,64.672c-46.432,0.019-84.093-28.904-84.117-64.604c-0.025-35.697,37.595-64.651,84.024-64.672    C215.61-688.383,253.268-659.459,253.292-623.762z" id="svg_22"/>
		<path clip-path="url(#SVGID_2_)" fill-rule="evenodd" clip-rule="evenodd" fill="#7BB3E7" d="M255.473-615.789    c0.019,31.201-31.178,56.506-69.68,56.521c-38.502,0.018-69.733-25.265-69.751-56.461c-0.022-31.203,31.17-56.51,69.673-56.523    C224.218-672.269,255.448-646.986,255.473-615.789z" id="svg_23"/>
	</g>
</g><rect x="441.5419921875" y="-800.823974609375" fill-rule="evenodd" clip-rule="evenodd" fill="#EDF3FB" stroke="#4B9DDF" stroke-miterlimit="22.9256" width="34.500999450683594" height="34.499000549316406" id="svg_24"/><rect x="441.56201171875" y="-766.3259887695312" fill-rule="evenodd" clip-rule="evenodd" fill="#EDF3FB" stroke="#4B9DDF" stroke-miterlimit="22.9256" width="34.49800109863281" height="34.5" id="svg_25"/><rect x="441.5039978027344" y="-869.8250122070312" fill-rule="evenodd" clip-rule="evenodd" fill="#EDF3FB" stroke="#4B9DDF" stroke-miterlimit="22.9256" width="34.5" height="34.5" id="svg_26"/><rect x="441.52398681640625" y="-835.3250122070312" fill-rule="evenodd" clip-rule="evenodd" fill="#EDF3FB" stroke="#4B9DDF" stroke-miterlimit="22.9256" width="34.49800109863281" height="34.5" id="svg_27"/><rect x="441.5889892578125" y="-662.8280029296875" fill-rule="evenodd" clip-rule="evenodd" fill="#EDF3FB" stroke="#4B9DDF" stroke-miterlimit="22.9256" width="34.49800109863281" height="34.500999450683594" id="svg_28"/><rect x="441.6080017089844" y="-628.3259887695312" fill-rule="evenodd" clip-rule="evenodd" fill="#EDF3FB" stroke="#4B9DDF" stroke-miterlimit="22.9256" width="34.499000549316406" height="34.49800109863281" id="svg_29"/><rect x="441.5509948730469" y="-731.8270263671875" fill-rule="evenodd" clip-rule="evenodd" fill="#EDF3FB" stroke="#4B9DDF" stroke-miterlimit="22.9256" width="34.49800109863281" height="34.50199890136719" id="svg_30"/><rect x="27.392000198364258" y="-800.5960083007812" fill-rule="evenodd" clip-rule="evenodd" fill="#EDF3FB" stroke="#4B9DDF" stroke-miterlimit="22.9256" width="34.49800109863281" height="34.5" id="svg_31"/><rect x="61.89099884033203" y="-800.614990234375" fill-rule="evenodd" clip-rule="evenodd" fill="none" stroke="#4B9DDF" stroke-miterlimit="22.9256" width="34.50199890136719" height="34.5" id="svg_32"/><rect x="96.39199829101562" y="-800.6329956054688" fill-rule="evenodd" clip-rule="evenodd" fill="none" stroke="#4B9DDF" stroke-miterlimit="22.9256" width="34.49800109863281" height="34.499000549316406" id="svg_33"/><rect x="27.41200065612793" y="-766.0969848632812" fill-rule="evenodd" clip-rule="evenodd" fill="#EDF3FB" stroke="#4B9DDF" stroke-miterlimit="22.9256" width="34.49800109863281" height="34.500999450683594" id="svg_34"/><rect x="61.90999984741211" y="-766.114990234375" fill-rule="evenodd" clip-rule="evenodd" fill="none" stroke="#4B9DDF" stroke-miterlimit="22.9256" width="34.5" height="34.5" id="svg_35"/><rect x="96.41100311279297" y="-766.1339721679688" fill-rule="evenodd" clip-rule="evenodd" fill="none" stroke="#4B9DDF" stroke-miterlimit="22.9256" width="34.499000549316406" height="34.5" id="svg_36"/><rect x="27.354000091552734" y="-869.594970703125" fill-rule="evenodd" clip-rule="evenodd" fill="#96C2EC" stroke="#4B9DDF" stroke-miterlimit="22.9256" width="34.49800109863281" height="34.499000549316406" id="svg_37"/><rect x="61.85300064086914" y="-869.614013671875" fill-rule="evenodd" clip-rule="evenodd" fill="#EDF3FB" stroke="#4B9DDF" stroke-miterlimit="22.9256" width="34.5" height="34.49800109863281" id="svg_38"/><rect x="96.35299682617188" y="-869.6320190429688" fill-rule="evenodd" clip-rule="evenodd" fill="#EDF3FB" stroke="#4B9DDF" stroke-miterlimit="22.9256" width="34.5" height="34.49800109863281" id="svg_39"/><rect x="27.37299919128418" y="-835.0960083007812" fill-rule="evenodd" clip-rule="evenodd" fill="#EDF3FB" stroke="#4B9DDF" stroke-miterlimit="22.9256" width="34.5" height="34.5" id="svg_40"/><rect x="61.87200164794922" y="-835.114990234375" fill-rule="evenodd" clip-rule="evenodd" fill="none" stroke="#4B9DDF" stroke-miterlimit="22.9256" width="34.5" height="34.5" id="svg_41"/><rect x="96.37200164794922" y="-835.135009765625" fill-rule="evenodd" clip-rule="evenodd" fill="none" stroke="#4B9DDF" stroke-miterlimit="22.9256" width="34.499000549316406" height="34.500999450683594" id="svg_42"/><rect x="130.95399475097656" y="-800.6519775390625" fill-rule="evenodd" clip-rule="evenodd" fill="none" stroke="#4B9DDF" stroke-miterlimit="22.9256" width="34.499000549316406" height="34.49800109863281" id="svg_43"/><rect x="165.45199584960938" y="-800.6719970703125" fill-rule="evenodd" clip-rule="evenodd" fill="none" stroke="#4B9DDF" stroke-miterlimit="22.9256" width="34.499000549316406" height="34.5" id="svg_44"/><rect x="199.9510040283203" y="-800.6929931640625" fill-rule="evenodd" clip-rule="evenodd" fill="none" stroke="#4B9DDF" stroke-miterlimit="22.9256" width="34.5" height="34.50199890136719" id="svg_45"/><rect x="234.45199584960938" y="-800.7080078125" fill-rule="evenodd" clip-rule="evenodd" fill="none" stroke="#4B9DDF" stroke-miterlimit="22.9256" width="34.500999450683594" height="34.49800109863281" id="svg_46"/><rect x="130.97300720214844" y="-766.155029296875" fill-rule="evenodd" clip-rule="evenodd" fill="none" stroke="#4B9DDF" stroke-miterlimit="22.9256" width="34.49800109863281" height="34.500999450683594" id="svg_47"/><rect x="165.4709930419922" y="-766.1729736328125" fill-rule="evenodd" clip-rule="evenodd" fill="none" stroke="#4B9DDF" stroke-miterlimit="22.9256" width="34.5" height="34.5" id="svg_48"/><rect x="199.9709930419922" y="-766.1900024414062" fill-rule="evenodd" clip-rule="evenodd" fill="none" stroke="#4B9DDF" stroke-miterlimit="22.9256" width="34.500999450683594" height="34.49800109863281" id="svg_49"/><rect x="234.4709930419922" y="-766.2119750976562" fill-rule="evenodd" clip-rule="evenodd" fill="none" stroke="#4B9DDF" stroke-miterlimit="22.9256" width="34.499000549316406" height="34.5" id="svg_50"/><rect x="130.91600036621094" y="-869.6510009765625" fill-rule="evenodd" clip-rule="evenodd" fill="#EDF3FB" stroke="#4B9DDF" stroke-miterlimit="22.9256" width="34.49800109863281" height="34.499000549316406" id="svg_51"/><rect x="165.41400146484375" y="-869.6710205078125" fill-rule="evenodd" clip-rule="evenodd" fill="#EDF3FB" stroke="#4B9DDF" stroke-miterlimit="22.9256" width="34.499000549316406" height="34.5" id="svg_52"/><rect x="199.91299438476562" y="-869.6909790039062" fill-rule="evenodd" clip-rule="evenodd" fill="#EDF3FB" stroke="#4B9DDF" stroke-miterlimit="22.9256" width="34.50199890136719" height="34.5" id="svg_53"/><rect x="234.41400146484375" y="-869.708984375" fill-rule="evenodd" clip-rule="evenodd" fill="#EDF3FB" stroke="#4B9DDF" stroke-miterlimit="22.9256" width="34.499000549316406" height="34.5" id="svg_54"/><rect x="130.93499755859375" y="-835.155029296875" fill-rule="evenodd" clip-rule="evenodd" fill="none" stroke="#4B9DDF" stroke-miterlimit="22.9256" width="34.49800109863281" height="34.50199890136719" id="svg_55"/><rect x="165.43299865722656" y="-835.1710205078125" fill-rule="evenodd" clip-rule="evenodd" fill="none" stroke="#4B9DDF" stroke-miterlimit="22.9256" width="34.499000549316406" height="34.499000549316406" id="svg_56"/><rect x="199.9320068359375" y="-835.1900024414062" fill-rule="evenodd" clip-rule="evenodd" fill="none" stroke="#4B9DDF" stroke-miterlimit="22.9256" width="34.500999450683594" height="34.499000549316406" id="svg_57"/><rect x="234.4340057373047" y="-835.2109985351562" fill-rule="evenodd" clip-rule="evenodd" fill="none" stroke="#4B9DDF" stroke-miterlimit="22.9256" width="34.5" height="34.5" id="svg_58"/><rect x="27.43600082397461" y="-662.5980224609375" fill-rule="evenodd" clip-rule="evenodd" fill="#EDF3FB" stroke="#4B9DDF" stroke-miterlimit="22.9256" width="34.5" height="34.5" id="svg_59"/><rect x="61.93600082397461" y="-662.6170043945312" fill-rule="evenodd" clip-rule="evenodd" fill="none" stroke="#4B9DDF" stroke-miterlimit="22.9256" width="34.5" height="34.5" id="svg_60"/><rect x="96.43599700927734" y="-662.6370239257812" fill-rule="evenodd" clip-rule="evenodd" fill="none" stroke="#4B9DDF" stroke-miterlimit="22.9256" width="34.5" height="34.5" id="svg_61"/><rect x="27.45599937438965" y="-628.0980224609375" fill-rule="evenodd" clip-rule="evenodd" fill="#EDF3FB" stroke="#4B9DDF" stroke-miterlimit="22.9256" width="34.5" height="34.49800109863281" id="svg_62"/><rect x="61.95600128173828" y="-628.1170043945312" fill-rule="evenodd" clip-rule="evenodd" fill="none" stroke="#4B9DDF" stroke-miterlimit="22.9256" width="34.5" height="34.49800109863281" id="svg_63"/><rect x="96.45600128173828" y="-628.135986328125" fill-rule="evenodd" clip-rule="evenodd" fill="none" stroke="#4B9DDF" stroke-miterlimit="22.9256" width="34.499000549316406" height="34.49800109863281" id="svg_64"/><rect x="27.39900016784668" y="-731.5969848632812" fill-rule="evenodd" clip-rule="evenodd" fill="#EDF3FB" stroke="#4B9DDF" stroke-miterlimit="22.9256" width="34.5" height="34.500999450683594" id="svg_65"/><rect x="61.89799880981445" y="-731.6160278320312" fill-rule="evenodd" clip-rule="evenodd" fill="none" stroke="#4B9DDF" stroke-miterlimit="22.9256" width="34.5" height="34.5" id="svg_66"/><rect x="96.39800262451172" y="-731.635009765625" fill-rule="evenodd" clip-rule="evenodd" fill="none" stroke="#4B9DDF" stroke-miterlimit="22.9256" width="34.5" height="34.5" id="svg_67"/><rect x="27.41699981689453" y="-697.0960083007812" fill-rule="evenodd" clip-rule="evenodd" fill="#EDF3FB" stroke="#4B9DDF" stroke-miterlimit="22.9256" width="34.5" height="34.49800109863281" id="svg_68"/><rect x="61.91699981689453" y="-697.114990234375" fill-rule="evenodd" clip-rule="evenodd" fill="none" stroke="#4B9DDF" stroke-miterlimit="22.9256" width="34.5" height="34.49800109863281" id="svg_69"/><rect x="96.41699981689453" y="-697.1339721679688" fill-rule="evenodd" clip-rule="evenodd" fill="none" stroke="#4B9DDF" stroke-miterlimit="22.9256" width="34.50199890136719" height="34.49800109863281" id="svg_70"/><rect x="131" y="-662.655029296875" fill-rule="evenodd" clip-rule="evenodd" fill="none" stroke="#4B9DDF" stroke-miterlimit="22.9256" width="34.49800109863281" height="34.5" id="svg_71"/><rect x="165.49899291992188" y="-662.6719970703125" fill-rule="evenodd" clip-rule="evenodd" fill="none" stroke="#4B9DDF" stroke-miterlimit="22.9256" width="34.499000549316406" height="34.49800109863281" id="svg_72"/><rect x="199.99899291992188" y="-662.6920166015625" fill-rule="evenodd" clip-rule="evenodd" fill="none" stroke="#4B9DDF" stroke-miterlimit="22.9256" width="34.5" height="34.5" id="svg_73"/><rect x="234.4980010986328" y="-662.7119750976562" fill-rule="evenodd" clip-rule="evenodd" fill="none" stroke="#4B9DDF" stroke-miterlimit="22.9256" width="34.5" height="34.5" id="svg_74"/><rect x="131.0189971923828" y="-628.1539916992188" fill-rule="evenodd" clip-rule="evenodd" fill="none" stroke="#4B9DDF" stroke-miterlimit="22.9256" width="34.5" height="34.49800109863281" id="svg_75"/><rect x="165.51800537109375" y="-628.1749877929688" fill-rule="evenodd" clip-rule="evenodd" fill="none" stroke="#4B9DDF" stroke-miterlimit="22.9256" width="34.49800109863281" height="34.500999450683594" id="svg_76"/><rect x="200.01699829101562" y="-628.1929931640625" fill-rule="evenodd" clip-rule="evenodd" fill="none" stroke="#4B9DDF" stroke-miterlimit="22.9256" width="34.500999450683594" height="34.5" id="svg_77"/><rect x="234.51699829101562" y="-628.2109985351562" fill-rule="evenodd" clip-rule="evenodd" fill="none" stroke="#4B9DDF" stroke-miterlimit="22.9256" width="34.5" height="34.49800109863281" id="svg_78"/><rect x="130.9600067138672" y="-731.6539916992188" fill-rule="evenodd" clip-rule="evenodd" fill="none" stroke="#4B9DDF" stroke-miterlimit="22.9256" width="34.5" height="34.5" id="svg_79"/><rect x="165.45899963378906" y="-731.6740112304688" fill-rule="evenodd" clip-rule="evenodd" fill="none" stroke="#4B9DDF" stroke-miterlimit="22.9256" width="34.500999450683594" height="34.500999450683594" id="svg_80"/><rect x="199.96099853515625" y="-731.6920166015625" fill-rule="evenodd" clip-rule="evenodd" fill="none" stroke="#4B9DDF" stroke-miterlimit="22.9256" width="34.499000549316406" height="34.5" id="svg_81"/><rect x="234.45899963378906" y="-731.7109985351562" fill-rule="evenodd" clip-rule="evenodd" fill="none" stroke="#4B9DDF" stroke-miterlimit="22.9256" width="34.5" height="34.5" id="svg_82"/><rect x="130.97900390625" y="-697.1519775390625" fill-rule="evenodd" clip-rule="evenodd" fill="none" stroke="#4B9DDF" stroke-miterlimit="22.9256" width="34.500999450683594" height="34.49800109863281" id="svg_83"/><rect x="165.47900390625" y="-697.1729736328125" fill-rule="evenodd" clip-rule="evenodd" fill="none" stroke="#4B9DDF" stroke-miterlimit="22.9256" width="34.5" height="34.5" id="svg_84"/><rect x="199.97999572753906" y="-697.1909790039062" fill-rule="evenodd" clip-rule="evenodd" fill="none" stroke="#4B9DDF" stroke-miterlimit="22.9256" width="34.49800109863281" height="34.499000549316406" id="svg_85"/><rect x="234.47900390625" y="-697.2109985351562" fill-rule="evenodd" clip-rule="evenodd" fill="none" stroke="#4B9DDF" stroke-miterlimit="22.9256" width="34.5" height="34.5" id="svg_86"/><rect x="268.9830017089844" y="-800.72900390625" fill-rule="evenodd" clip-rule="evenodd" fill="none" stroke="#4B9DDF" stroke-miterlimit="22.9256" width="34.5" height="34.5" id="svg_87"/><rect x="303.4830017089844" y="-800.7490234375" fill-rule="evenodd" clip-rule="evenodd" fill="none" stroke="#4B9DDF" stroke-miterlimit="22.9256" width="34.49800109863281" height="34.5" id="svg_88"/><rect x="337.9809875488281" y="-800.7670288085938" fill-rule="evenodd" clip-rule="evenodd" fill="none" stroke="#4B9DDF" stroke-miterlimit="22.9256" width="34.500999450683594" height="34.49800109863281" id="svg_89"/><rect x="372.4809875488281" y="-800.7860107421875" fill-rule="evenodd" clip-rule="evenodd" fill="none" stroke="#4B9DDF" stroke-miterlimit="22.9256" width="34.49800109863281" height="34.499000549316406" id="svg_90"/><rect x="269.00201416015625" y="-766.2310180664062" fill-rule="evenodd" clip-rule="evenodd" fill="none" stroke="#4B9DDF" stroke-miterlimit="22.9256" width="34.49800109863281" height="34.5" id="svg_91"/><rect x="303.5010070800781" y="-766.2479858398438" fill-rule="evenodd" clip-rule="evenodd" fill="none" stroke="#4B9DDF" stroke-miterlimit="22.9256" width="34.49800109863281" height="34.49800109863281" id="svg_92"/><rect x="338" y="-766.27001953125" fill-rule="evenodd" clip-rule="evenodd" fill="none" stroke="#4B9DDF" stroke-miterlimit="22.9256" width="34.500999450683594" height="34.5" id="svg_93"/><rect x="372.5" y="-766.2880249023438" fill-rule="evenodd" clip-rule="evenodd" fill="none" stroke="#4B9DDF" stroke-miterlimit="22.9256" width="34.500999450683594" height="34.5" id="svg_94"/><rect x="268.94500732421875" y="-869.72900390625" fill-rule="evenodd" clip-rule="evenodd" fill="#EDF3FB" stroke="#4B9DDF" stroke-miterlimit="22.9256" width="34.499000549316406" height="34.5" id="svg_95"/><rect x="303.4440002441406" y="-869.7479858398438" fill-rule="evenodd" clip-rule="evenodd" fill="#EDF3FB" stroke="#4B9DDF" stroke-miterlimit="22.9256" width="34.499000549316406" height="34.5" id="svg_96"/><rect x="337.9429931640625" y="-869.7680053710938" fill-rule="evenodd" clip-rule="evenodd" fill="#EDF3FB" stroke="#4B9DDF" stroke-miterlimit="22.9256" width="34.500999450683594" height="34.5" id="svg_97"/><rect x="372.4440002441406" y="-869.7860107421875" fill-rule="evenodd" clip-rule="evenodd" fill="#EDF3FB" stroke="#4B9DDF" stroke-miterlimit="22.9256" width="34.49800109863281" height="34.499000549316406" id="svg_98"/><rect x="268.9639892578125" y="-835.22900390625" fill-rule="evenodd" clip-rule="evenodd" fill="none" stroke="#4B9DDF" stroke-miterlimit="22.9256" width="34.499000549316406" height="34.499000549316406" id="svg_99"/><rect x="303.4630126953125" y="-835.2490234375" fill-rule="evenodd" clip-rule="evenodd" fill="none" stroke="#4B9DDF" stroke-miterlimit="22.9256" width="34.499000549316406" height="34.5" id="svg_100"/><rect x="337.9620056152344" y="-835.2670288085938" fill-rule="evenodd" clip-rule="evenodd" fill="none" stroke="#4B9DDF" stroke-miterlimit="22.9256" width="34.49800109863281" height="34.5" id="svg_101"/><rect x="372.4620056152344" y="-835.2869873046875" fill-rule="evenodd" clip-rule="evenodd" fill="none" stroke="#4B9DDF" stroke-miterlimit="22.9256" width="34.5" height="34.5" id="svg_102"/><rect x="407.0419921875" y="-800.8079833984375" fill-rule="evenodd" clip-rule="evenodd" fill="none" stroke="#4B9DDF" stroke-miterlimit="22.9256" width="34.5" height="34.5" id="svg_103"/><rect x="407.0610046386719" y="-766.3070068359375" fill-rule="evenodd" clip-rule="evenodd" fill="none" stroke="#4B9DDF" stroke-miterlimit="22.9256" width="34.500999450683594" height="34.5" id="svg_104"/><rect x="407.0050048828125" y="-869.802978515625" fill-rule="evenodd" clip-rule="evenodd" fill="#EDF3FB" stroke="#4B9DDF" stroke-miterlimit="22.9256" width="34.499000549316406" height="34.49700164794922" id="svg_105"/><rect x="407.02398681640625" y="-835.3070068359375" fill-rule="evenodd" clip-rule="evenodd" fill="none" stroke="#4B9DDF" stroke-miterlimit="22.9256" width="34.500999450683594" height="34.5" id="svg_106"/><rect x="269.02899169921875" y="-662.72998046875" fill-rule="evenodd" clip-rule="evenodd" fill="none" stroke="#4B9DDF" stroke-miterlimit="22.9256" width="34.499000549316406" height="34.49800109863281" id="svg_107"/><rect x="303.52801513671875" y="-662.75" fill-rule="evenodd" clip-rule="evenodd" fill="none" stroke="#4B9DDF" stroke-miterlimit="22.9256" width="34.5" height="34.499000549316406" id="svg_108"/><rect x="338.0270080566406" y="-662.77001953125" fill-rule="evenodd" clip-rule="evenodd" fill="none" stroke="#4B9DDF" stroke-miterlimit="22.9256" width="34.49800109863281" height="34.499000549316406" id="svg_109"/><rect x="372.5260009765625" y="-662.7890014648438" fill-rule="evenodd" clip-rule="evenodd" fill="none" stroke="#4B9DDF" stroke-miterlimit="22.9256" width="34.500999450683594" height="34.499000549316406" id="svg_110"/><rect x="269.0480041503906" y="-628.2319946289062" fill-rule="evenodd" clip-rule="evenodd" fill="none" stroke="#4B9DDF" stroke-miterlimit="22.9256" width="34.499000549316406" height="34.5" id="svg_111"/><rect x="303.5469970703125" y="-628.2520141601562" fill-rule="evenodd" clip-rule="evenodd" fill="none" stroke="#4B9DDF" stroke-miterlimit="22.9256" width="34.49800109863281" height="34.5" id="svg_112"/><rect x="338.0459899902344" y="-628.2689819335938" fill-rule="evenodd" clip-rule="evenodd" fill="none" stroke="#4B9DDF" stroke-miterlimit="22.9256" width="34.49800109863281" height="34.49800109863281" id="svg_113"/><rect x="372.54400634765625" y="-628.2899780273438" fill-rule="evenodd" clip-rule="evenodd" fill="none" stroke="#4B9DDF" stroke-miterlimit="22.9256" width="34.50199890136719" height="34.500999450683594" id="svg_114"/><rect x="268.9909973144531" y="-731.7310180664062" fill-rule="evenodd" clip-rule="evenodd" fill="none" stroke="#4B9DDF" stroke-miterlimit="22.9256" width="34.49700164794922" height="34.5" id="svg_115"/><rect x="303.489013671875" y="-731.75" fill-rule="evenodd" clip-rule="evenodd" fill="none" stroke="#4B9DDF" stroke-miterlimit="22.9256" width="34.50199890136719" height="34.5" id="svg_116"/><rect x="337.989013671875" y="-731.7670288085938" fill-rule="evenodd" clip-rule="evenodd" fill="none" stroke="#4B9DDF" stroke-miterlimit="22.9256" width="34.49800109863281" height="34.49800109863281" id="svg_117"/><rect x="372.4880065917969" y="-731.7880249023438" fill-rule="evenodd" clip-rule="evenodd" fill="none" stroke="#4B9DDF" stroke-miterlimit="22.9256" width="34.500999450683594" height="34.5" id="svg_118"/><rect x="269.010009765625" y="-697.2310180664062" fill-rule="evenodd" clip-rule="evenodd" fill="none" stroke="#4B9DDF" stroke-miterlimit="22.9256" width="34.5" height="34.5" id="svg_119"/><rect x="303.50799560546875" y="-697.25" fill-rule="evenodd" clip-rule="evenodd" fill="none" stroke="#4B9DDF" stroke-miterlimit="22.9256" width="34.49800109863281" height="34.499000549316406" id="svg_120"/><rect x="338.00799560546875" y="-697.2689819335938" fill-rule="evenodd" clip-rule="evenodd" fill="none" stroke="#4B9DDF" stroke-miterlimit="22.9256" width="34.5" height="34.5" id="svg_121"/><rect x="372.5069885253906" y="-697.2880249023438" fill-rule="evenodd" clip-rule="evenodd" fill="none" stroke="#4B9DDF" stroke-miterlimit="22.9256" width="34.5" height="34.499000549316406" id="svg_122"/><rect x="407.0889892578125" y="-662.8079833984375" fill-rule="evenodd" clip-rule="evenodd" fill="none" stroke="#4B9DDF" stroke-miterlimit="22.9256" width="34.499000549316406" height="34.5" id="svg_123"/><rect x="407.1080017089844" y="-628.3090209960938" fill-rule="evenodd" clip-rule="evenodd" fill="none" stroke="#4B9DDF" stroke-miterlimit="22.9256" width="34.5" height="34.5" id="svg_124"/><rect x="407.04998779296875" y="-731.8070068359375" fill-rule="evenodd" clip-rule="evenodd" fill="none" stroke="#4B9DDF" stroke-miterlimit="22.9256" width="34.500999450683594" height="34.500999450683594" id="svg_125"/><rect x="407.0690002441406" y="-697.3060302734375" fill-rule="evenodd" clip-rule="evenodd" fill="none" stroke="#4B9DDF" stroke-miterlimit="22.9256" width="34.5" height="34.49800109863281" id="svg_126"/><rect x="441.57000732421875" y="-697.323974609375" fill-rule="evenodd" clip-rule="evenodd" fill="#EDF3FB" stroke="#4B9DDF" stroke-miterlimit="22.9256" width="34.499000549316406" height="34.49800109863281" id="svg_127"/><rect x="441.72698974609375" y="-524.8300170898438" fill-rule="evenodd" clip-rule="evenodd" fill="#EDF3FB" stroke="#4B9DDF" stroke-miterlimit="22.9256" width="34.49800109863281" height="34.500999450683594" id="svg_128"/><rect x="441.7460021972656" y="-490.3290100097656" fill-rule="evenodd" clip-rule="evenodd" fill="#EDF3FB" stroke="#4B9DDF" stroke-miterlimit="22.9256" width="34.5" height="34.499000549316406" id="svg_129"/><rect x="441.68798828125" y="-593.8280029296875" fill-rule="evenodd" clip-rule="evenodd" fill="#EDF3FB" stroke="#4B9DDF" stroke-miterlimit="22.9256" width="34.5" height="34.499000549316406" id="svg_130"/><rect x="441.7070007324219" y="-559.3289794921875" fill-rule="evenodd" clip-rule="evenodd" fill="#EDF3FB" stroke="#4B9DDF" stroke-miterlimit="22.9256" width="34.5" height="34.499000549316406" id="svg_131"/><rect x="441.7330017089844" y="-455.8299865722656" fill-rule="evenodd" clip-rule="evenodd" fill="#EDF3FB" stroke="#4B9DDF" stroke-miterlimit="22.9256" width="34.5" height="34.5" id="svg_132"/><rect x="27.57699966430664" y="-524.5999755859375" fill-rule="evenodd" clip-rule="evenodd" fill="#EDF3FB" stroke="#4B9DDF" stroke-miterlimit="22.9256" width="34.49700164794922" height="34.5" id="svg_133"/><rect x="62.07600021362305" y="-524.6190185546875" fill-rule="evenodd" clip-rule="evenodd" fill="none" stroke="#4B9DDF" stroke-miterlimit="22.9256" width="34.50299835205078" height="34.5" id="svg_134"/><rect x="96.57599639892578" y="-524.6380004882812" fill-rule="evenodd" clip-rule="evenodd" fill="none" stroke="#4B9DDF" stroke-miterlimit="22.9256" width="34.49800109863281" height="34.499000549316406" id="svg_135"/><rect x="27.59600067138672" y="-490.10101318359375" fill-rule="evenodd" clip-rule="evenodd" fill="#EDF3FB" stroke="#4B9DDF" stroke-miterlimit="22.9256" width="34.499000549316406" height="34.5" id="svg_136"/><rect x="62.09400177001953" y="-490.1180114746094" fill-rule="evenodd" clip-rule="evenodd" fill="none" stroke="#4B9DDF" stroke-miterlimit="22.9256" width="34.500999450683594" height="34.49800109863281" id="svg_137"/><rect x="96.59600067138672" y="-490.13800048828125" fill-rule="evenodd" clip-rule="evenodd" fill="none" stroke="#4B9DDF" stroke-miterlimit="22.9256" width="34.5" height="34.5" id="svg_138"/><rect x="27.538000106811523" y="-593.5989990234375" fill-rule="evenodd" clip-rule="evenodd" fill="#EDF3FB" stroke="#4B9DDF" stroke-miterlimit="22.9256" width="34.49700164794922" height="34.5" id="svg_139"/><rect x="62.0369987487793" y="-593.6179809570312" fill-rule="evenodd" clip-rule="evenodd" fill="none" stroke="#4B9DDF" stroke-miterlimit="22.9256" width="34.50199890136719" height="34.5" id="svg_140"/><rect x="96.53700256347656" y="-593.6380004882812" fill-rule="evenodd" clip-rule="evenodd" fill="none" stroke="#4B9DDF" stroke-miterlimit="22.9256" width="34.5" height="34.500999450683594" id="svg_141"/><rect x="27.55699920654297" y="-559.0999755859375" fill-rule="evenodd" clip-rule="evenodd" fill="#EDF3FB" stroke="#4B9DDF" stroke-miterlimit="22.9256" width="34.500999450683594" height="34.5" id="svg_142"/><rect x="62.055999755859375" y="-559.1179809570312" fill-rule="evenodd" clip-rule="evenodd" fill="none" stroke="#4B9DDF" stroke-miterlimit="22.9256" width="34.49800109863281" height="34.499000549316406" id="svg_143"/><rect x="96.55599975585938" y="-559.135986328125" fill-rule="evenodd" clip-rule="evenodd" fill="none" stroke="#4B9DDF" stroke-miterlimit="22.9256" width="34.500999450683594" height="34.499000549316406" id="svg_144"/><rect x="131.13699340820312" y="-524.656005859375" fill-rule="evenodd" clip-rule="evenodd" fill="none" stroke="#4B9DDF" stroke-miterlimit="22.9256" width="34.49800109863281" height="34.499000549316406" id="svg_145"/><rect x="165.63600158691406" y="-524.676025390625" fill-rule="evenodd" clip-rule="evenodd" fill="none" stroke="#4B9DDF" stroke-miterlimit="22.9256" width="34.5" height="34.499000549316406" id="svg_146"/><rect x="200.13600158691406" y="-524.6950073242188" fill-rule="evenodd" clip-rule="evenodd" fill="none" stroke="#4B9DDF" stroke-miterlimit="22.9256" width="34.500999450683594" height="34.499000549316406" id="svg_147"/><rect x="234.63600158691406" y="-524.7150268554688" fill-rule="evenodd" clip-rule="evenodd" fill="none" stroke="#4B9DDF" stroke-miterlimit="22.9256" width="34.500999450683594" height="34.5" id="svg_148"/><rect x="131.15699768066406" y="-490.1570129394531" fill-rule="evenodd" clip-rule="evenodd" fill="none" stroke="#4B9DDF" stroke-miterlimit="22.9256" width="34.49800109863281" height="34.5" id="svg_149"/><rect x="165.65499877929688" y="-490.177001953125" fill-rule="evenodd" clip-rule="evenodd" fill="none" stroke="#4B9DDF" stroke-miterlimit="22.9256" width="34.5" height="34.5" id="svg_150"/><rect x="200.15499877929688" y="-490.1960144042969" fill-rule="evenodd" clip-rule="evenodd" fill="none" stroke="#4B9DDF" stroke-miterlimit="22.9256" width="34.5" height="34.5" id="svg_151"/><rect x="234.65499877929688" y="-490.2149963378906" fill-rule="evenodd" clip-rule="evenodd" fill="none" stroke="#4B9DDF" stroke-miterlimit="22.9256" width="34.499000549316406" height="34.5" id="svg_152"/><rect x="131.09800720214844" y="-593.656005859375" fill-rule="evenodd" clip-rule="evenodd" fill="none" stroke="#4B9DDF" stroke-miterlimit="22.9256" width="34.5" height="34.5" id="svg_153"/><rect x="165.59800720214844" y="-593.676025390625" fill-rule="evenodd" clip-rule="evenodd" fill="none" stroke="#4B9DDF" stroke-miterlimit="22.9256" width="34.5" height="34.5" id="svg_154"/><rect x="200.0970001220703" y="-593.6929931640625" fill-rule="evenodd" clip-rule="evenodd" fill="none" stroke="#4B9DDF" stroke-miterlimit="22.9256" width="34.5" height="34.49800109863281" id="svg_155"/><rect x="234.5970001220703" y="-593.7139892578125" fill-rule="evenodd" clip-rule="evenodd" fill="none" stroke="#4B9DDF" stroke-miterlimit="22.9256" width="34.500999450683594" height="34.5" id="svg_156"/><rect x="131.11700439453125" y="-559.156005859375" fill-rule="evenodd" clip-rule="evenodd" fill="none" stroke="#4B9DDF" stroke-miterlimit="22.9256" width="34.499000549316406" height="34.5" id="svg_157"/><rect x="165.61700439453125" y="-559.176025390625" fill-rule="evenodd" clip-rule="evenodd" fill="none" stroke="#4B9DDF" stroke-miterlimit="22.9256" width="34.5" height="34.5" id="svg_158"/><rect x="200.11700439453125" y="-559.1950073242188" fill-rule="evenodd" clip-rule="evenodd" fill="none" stroke="#4B9DDF" stroke-miterlimit="22.9256" width="34.5" height="34.5" id="svg_159"/><rect x="234.61700439453125" y="-559.2150268554688" fill-rule="evenodd" clip-rule="evenodd" fill="none" stroke="#4B9DDF" stroke-miterlimit="22.9256" width="34.499000549316406" height="34.5" id="svg_160"/><rect x="27.58300018310547" y="-455.5989990234375" fill-rule="evenodd" clip-rule="evenodd" fill="#EDF3FB" stroke="#4B9DDF" stroke-miterlimit="22.9256" width="34.5" height="34.499000549316406" id="svg_161"/><rect x="62.08300018310547" y="-455.6189880371094" fill-rule="evenodd" clip-rule="evenodd" fill="none" stroke="#4B9DDF" stroke-miterlimit="22.9256" width="34.499000549316406" height="34.5" id="svg_162"/><rect x="96.47100067138672" y="-455.7860107421875" fill-rule="evenodd" clip-rule="evenodd" fill="none" stroke="#4B9DDF" stroke-miterlimit="22.9256" width="34.49800109863281" height="34.5" id="svg_163"/><rect x="131.14599609375" y="-455.6570129394531" fill-rule="evenodd" clip-rule="evenodd" fill="none" stroke="#4B9DDF" stroke-miterlimit="22.9256" width="34.499000549316406" height="34.49800109863281" id="svg_164"/><rect x="165.6439971923828" y="-455.677001953125" fill-rule="evenodd" clip-rule="evenodd" fill="none" stroke="#4B9DDF" stroke-miterlimit="22.9256" width="34.49700164794922" height="34.5" id="svg_165"/><rect x="200.14199829101562" y="-455.6960144042969" fill-rule="evenodd" clip-rule="evenodd" fill="none" stroke="#4B9DDF" stroke-miterlimit="22.9256" width="34.50199890136719" height="34.500999450683594" id="svg_166"/><rect x="234.64300537109375" y="-455.7149963378906" fill-rule="evenodd" clip-rule="evenodd" fill="none" stroke="#4B9DDF" stroke-miterlimit="22.9256" width="34.499000549316406" height="34.5" id="svg_167"/><rect x="269.1669921875" y="-524.7329711914062" fill-rule="evenodd" clip-rule="evenodd" fill="none" stroke="#4B9DDF" stroke-miterlimit="22.9256" width="34.49700164794922" height="34.499000549316406" id="svg_168"/><rect x="303.6650085449219" y="-524.7520141601562" fill-rule="evenodd" clip-rule="evenodd" fill="none" stroke="#4B9DDF" stroke-miterlimit="22.9256" width="34.5" height="34.499000549316406" id="svg_169"/><rect x="338.1650085449219" y="-524.77099609375" fill-rule="evenodd" clip-rule="evenodd" fill="none" stroke="#4B9DDF" stroke-miterlimit="22.9256" width="34.500999450683594" height="34.499000549316406" id="svg_170"/><rect x="372.6659851074219" y="-524.791015625" fill-rule="evenodd" clip-rule="evenodd" fill="none" stroke="#4B9DDF" stroke-miterlimit="22.9256" width="34.5" height="34.5" id="svg_171"/><rect x="269.1860046386719" y="-490.2340087890625" fill-rule="evenodd" clip-rule="evenodd" fill="none" stroke="#4B9DDF" stroke-miterlimit="22.9256" width="34.5" height="34.5" id="svg_172"/><rect x="303.6839904785156" y="-490.25299072265625" fill-rule="evenodd" clip-rule="evenodd" fill="none" stroke="#4B9DDF" stroke-miterlimit="22.9256" width="34.500999450683594" height="34.5" id="svg_173"/><rect x="338.18499755859375" y="-490.2720031738281" fill-rule="evenodd" clip-rule="evenodd" fill="none" stroke="#4B9DDF" stroke-miterlimit="22.9256" width="34.5" height="34.5" id="svg_174"/><rect x="372.68499755859375" y="-490.2909851074219" fill-rule="evenodd" clip-rule="evenodd" fill="none" stroke="#4B9DDF" stroke-miterlimit="22.9256" width="34.49800109863281" height="34.499000549316406" id="svg_175"/><rect x="269.1289978027344" y="-593.7329711914062" fill-rule="evenodd" clip-rule="evenodd" fill="none" stroke="#4B9DDF" stroke-miterlimit="22.9256" width="34.499000549316406" height="34.5" id="svg_176"/><rect x="303.62701416015625" y="-593.7520141601562" fill-rule="evenodd" clip-rule="evenodd" fill="none" stroke="#4B9DDF" stroke-miterlimit="22.9256" width="34.5" height="34.5" id="svg_177"/><rect x="338.12701416015625" y="-593.77197265625" fill-rule="evenodd" clip-rule="evenodd" fill="none" stroke="#4B9DDF" stroke-miterlimit="22.9256" width="34.5" height="34.500999450683594" id="svg_178"/><rect x="372.62701416015625" y="-593.7890014648438" fill-rule="evenodd" clip-rule="evenodd" fill="none" stroke="#4B9DDF" stroke-miterlimit="22.9256" width="34.5" height="34.499000549316406" id="svg_179"/><rect x="269.1470031738281" y="-559.2329711914062" fill-rule="evenodd" clip-rule="evenodd" fill="none" stroke="#4B9DDF" stroke-miterlimit="22.9256" width="34.499000549316406" height="34.5" id="svg_180"/><rect x="303.64599609375" y="-559.2509765625" fill-rule="evenodd" clip-rule="evenodd" fill="none" stroke="#4B9DDF" stroke-miterlimit="22.9256" width="34.5" height="34.499000549316406" id="svg_181"/><rect x="338.14599609375" y="-559.27099609375" fill-rule="evenodd" clip-rule="evenodd" fill="none" stroke="#4B9DDF" stroke-miterlimit="22.9256" width="34.50199890136719" height="34.5" id="svg_182"/><rect x="372.6470031738281" y="-559.2899780273438" fill-rule="evenodd" clip-rule="evenodd" fill="none" stroke="#4B9DDF" stroke-miterlimit="22.9256" width="34.5" height="34.499000549316406" id="svg_183"/><rect x="407.2279968261719" y="-524.8099975585938" fill-rule="evenodd" clip-rule="evenodd" fill="none" stroke="#4B9DDF" stroke-miterlimit="22.9256" width="34.500999450683594" height="34.499000549316406" id="svg_184"/><rect x="407.2460021972656" y="-490.3110046386719" fill-rule="evenodd" clip-rule="evenodd" fill="none" stroke="#4B9DDF" stroke-miterlimit="22.9256" width="34.5" height="34.5" id="svg_185"/><rect x="407.1889953613281" y="-593.8109741210938" fill-rule="evenodd" clip-rule="evenodd" fill="none" stroke="#4B9DDF" stroke-miterlimit="22.9256" width="34.49800109863281" height="34.50199890136719" id="svg_186"/><rect x="407.2080078125" y="-559.3090209960938" fill-rule="evenodd" clip-rule="evenodd" fill="none" stroke="#4B9DDF" stroke-miterlimit="22.9256" width="34.49800109863281" height="34.49800109863281" id="svg_187"/><rect x="269.1730041503906" y="-455.7340087890625" fill-rule="evenodd" clip-rule="evenodd" fill="none" stroke="#4B9DDF" stroke-miterlimit="22.9256" width="34.499000549316406" height="34.5" id="svg_188"/><rect x="303.6730041503906" y="-455.7539978027344" fill-rule="evenodd" clip-rule="evenodd" fill="none" stroke="#4B9DDF" stroke-miterlimit="22.9256" width="34.5" height="34.500999450683594" id="svg_189"/><rect x="338.1730041503906" y="-455.7720031738281" fill-rule="evenodd" clip-rule="evenodd" fill="none" stroke="#4B9DDF" stroke-miterlimit="22.9256" width="34.499000549316406" height="34.5" id="svg_190"/><rect x="372.6719970703125" y="-455.7919921875" fill-rule="evenodd" clip-rule="evenodd" fill="none" stroke="#4B9DDF" stroke-miterlimit="22.9256" width="34.5" height="34.5" id="svg_191"/><rect x="407.2359924316406" y="-455.81201171875" fill-rule="evenodd" clip-rule="evenodd" fill="none" stroke="#4B9DDF" stroke-miterlimit="22.9256" width="34.49599838256836" height="34.500999450683594" id="svg_192"/><rect x="441.75" y="-421.3299865722656" fill-rule="evenodd" clip-rule="evenodd" fill="#EDF3FB" stroke="#4B9DDF" stroke-miterlimit="22.9256" width="34.5" height="34.5" id="svg_193"/><rect x="27.600000381469727" y="-421.0979919433594" fill-rule="evenodd" clip-rule="evenodd" fill="#EDF3FB" stroke="#4B9DDF" stroke-miterlimit="22.9256" width="34.500999450683594" height="34.49800109863281" id="svg_194"/><rect x="62.10100173950195" y="-421.1189880371094" fill-rule="evenodd" clip-rule="evenodd" fill="#EDF3FB" stroke="#4B9DDF" stroke-miterlimit="22.9256" width="34.49800109863281" height="34.500999450683594" id="svg_195"/><rect x="96.48799896240234" y="-421.2860107421875" fill-rule="evenodd" clip-rule="evenodd" fill="#EDF3FB" stroke="#4B9DDF" stroke-miterlimit="22.9256" width="34.49800109863281" height="34.5" id="svg_196"/><rect x="131.16299438476562" y="-421.1570129394531" fill-rule="evenodd" clip-rule="evenodd" fill="#EDF3FB" stroke="#4B9DDF" stroke-miterlimit="22.9256" width="34.49800109863281" height="34.499000549316406" id="svg_197"/><rect x="165.66099548339844" y="-421.177001953125" fill-rule="evenodd" clip-rule="evenodd" fill="#EDF3FB" stroke="#4B9DDF" stroke-miterlimit="22.9256" width="34.49800109863281" height="34.500999450683594" id="svg_198"/><rect x="200.16000366210938" y="-421.19500732421875" fill-rule="evenodd" clip-rule="evenodd" fill="#EDF3FB" stroke="#4B9DDF" stroke-miterlimit="22.9256" width="34.50199890136719" height="34.500999450683594" id="svg_199"/><rect x="234.66099548339844" y="-421.2149963378906" fill-rule="evenodd" clip-rule="evenodd" fill="#EDF3FB" stroke="#4B9DDF" stroke-miterlimit="22.9256" width="34.5" height="34.500999450683594" id="svg_200"/><rect x="269.1910095214844" y="-421.2340087890625" fill-rule="evenodd" clip-rule="evenodd" fill="#EDF3FB" stroke="#4B9DDF" stroke-miterlimit="22.9256" width="34.499000549316406" height="34.500999450683594" id="svg_201"/><rect x="303.69000244140625" y="-421.25299072265625" fill-rule="evenodd" clip-rule="evenodd" fill="#EDF3FB" stroke="#4B9DDF" stroke-miterlimit="22.9256" width="34.499000549316406" height="34.5" id="svg_202"/><rect x="338.19000244140625" y="-421.2720031738281" fill-rule="evenodd" clip-rule="evenodd" fill="#EDF3FB" stroke="#4B9DDF" stroke-miterlimit="22.9256" width="34.49800109863281" height="34.5" id="svg_203"/><rect x="372.6889953613281" y="-421.2919921875" fill-rule="evenodd" clip-rule="evenodd" fill="#EDF3FB" stroke="#4B9DDF" stroke-miterlimit="22.9256" width="34.5" height="34.5" id="svg_204"/><rect x="407.25299072265625" y="-421.3110046386719" fill-rule="evenodd" clip-rule="evenodd" fill="#EDF3FB" stroke="#4B9DDF" stroke-miterlimit="22.9256" width="34.49700164794922" height="34.5" id="svg_205"/><ellipse transform="matrix(1 0.0037 -0.0037 1 -2.7754 -1.1497)" fill-rule="evenodd" clip-rule="evenodd" fill="none" stroke="#4B9DDF" stroke-miterlimit="22.9256" cx="312.67498779296875" cy="-758.68798828125" rx="59.35200119018555" ry="65.93099975585938" id="svg_206"/><ellipse transform="matrix(1 0.0037 -0.0037 1 -2.7592 -1.1888)" fill-rule="evenodd" clip-rule="evenodd" fill="none" stroke="#4B9DDF" stroke-miterlimit="22.9256" cx="323.18499755859375" cy="-753.9099731445312" rx="83.38600158691406" ry="81.69200134277344" id="svg_207"/><ellipse transform="matrix(1 0.0037 -0.0037 1 -2.3402 -0.6631)" fill-rule="evenodd" clip-rule="evenodd" fill="none" stroke="#4B9DDF" stroke-miterlimit="22.9256" cx="180.32000732421875" cy="-640.791015625" rx="83.38500213623047" ry="81.69300079345703" id="svg_208"/><ellipse transform="matrix(1 0.0037 -0.0037 1 -2.3278 -0.7134)" fill-rule="evenodd" clip-rule="evenodd" fill="none" stroke="#4B9DDF" stroke-miterlimit="22.9256" cx="193.45599365234375" cy="-635.4310302734375" rx="59.41400146484375" ry="65.93099975585938" id="svg_209"/><text transform="matrix(1 0 0 1 182.4438 -375.5771)" fill="#9BC5ED" font-family="'MyriadPro-Regular'" font-size="12" id="svg_210">área mínima de interferencia</text><text transform="matrix(1 0 0 1 40.3442 -849.3545)" fill="#0085B7" font-family="'MyriadPro-Regular'" font-size="12" id="svg_211">A</text><text transform="matrix(1 0 0 1 241.645 -885.9331)" fill="#0085B7" font-family="'MyriadPro-Regular'" font-size="12" id="svg_212">9 A</text><text transform="matrix(1 0 0 1 485.0474 -711.439)" fill="#0085B7" font-family="'MyriadPro-Regular'" font-size="12" id="svg_213">8 A</text><g id="svg_214">
	<g id="svg_215">
		<line fill="none" stroke="#FE110A" stroke-miterlimit="22.9256" x1="493.07000732421875" y1="-829.051025390625" x2="493.07000732421875" y2="-731.833984375" id="svg_216"/>
		<g id="svg_217">
			<path fill="#FE110A" d="M493.07-835.086c-1.054,2.84-2.852,6.363-4.756,8.547l4.756-1.72l4.755,1.72     C495.92-828.723,494.123-832.247,493.07-835.086z" id="svg_218"/>
		</g>
	</g>
</g><g id="svg_219">
	<g id="svg_220">
		
			<line fill="none" stroke="#FE110A" stroke-width="1.1529" stroke-miterlimit="22.9256" x1="493.07000732421875" y1="-566.7949829101562" x2="493.07000732421875" y2="-697.0869750976562" id="svg_221"/>
		<g id="svg_222">
			<path fill="#FE110A" d="M493.07-559.837c1.215-3.274,3.288-7.337,5.483-9.854l-5.483,1.983l-5.482-1.983     C489.784-567.174,491.856-563.111,493.07-559.837z" id="svg_223"/>
		</g>
	</g>
</g><g id="svg_224">
	<g id="svg_225">
		
			<line fill="none" stroke="#FE110A" stroke-width="1.1473" stroke-miterlimit="22.9256" x1="104.3479995727539" y1="-889.4550170898438" x2="233.33299255371094" y2="-889.4550170898438" id="svg_226"/>
		<g id="svg_227">
			<path fill="#FE110A" d="M97.424-889.455c3.258,1.209,7.301,3.271,9.807,5.457l-1.974-5.457l1.974-5.455     C104.725-892.726,100.682-890.663,97.424-889.455z" id="svg_228"/>
		</g>
	</g>
</g><g id="svg_229">
	<g id="svg_230">
		
			<line fill="none" stroke="#FE110A" stroke-width="1.1529" stroke-miterlimit="22.9256" x1="398.37200927734375" y1="-889.4550170898438" x2="268.0799865722656" y2="-889.4550170898438" id="svg_231"/>
		<g id="svg_232">
			<path fill="#FE110A" d="M405.33-889.455c-3.274-1.215-7.337-3.288-9.854-5.483l1.983,5.483l-1.983,5.482     C397.993-886.168,402.055-888.241,405.33-889.455z" id="svg_233"/>
		</g>
	</g>
</g><path fill-rule="evenodd" clip-rule="evenodd" fill="#171616" d="M241.53366088867188,2.946430206298828 c52.00199890136719,10.253999710083008 71.86499786376953,47.99800109863281 70.66200256347656,86.03600311279297 c-1.725000023841858,54.558998107910156 -66.91799926757812,99.1729965209961 -131.41799926757812,66.08499908447266 l-2.117000102996826,-17.64699935913086 c53.32600021362305,24.84600067138672 97.56400299072266,-8.142000198364258 99.2030029296875,-58.25899887084961 c0.781000018119812,-23.93000030517578 -17.666000366210938,-65.99600219726562 -57.667999267578125,-66.12300109863281 c-28.878999710083008,-0.09200000017881393 -47.56800079345703,20.766000747680664 -51.242000579833984,33.10900115966797 c-12.704999923706055,42.691001892089844 10.088000297546387,151.94700622558594 -2.259999990463257,183.16000366210938 c-22.378999710083008,56.57400131225586 -87.28299713134766,48.027000427246094 -87.28299713134766,48.027000427246094 c38.64500045776367,-1.2769999504089355 63.93000030517578,-24.033000946044922 71.0780029296875,-47.09199905395508 c7.954999923706055,-25.665000915527344 -12.890999794006348,-149.9669952392578 -1.6519999504089355,-180.25399780273438 C170.92367553710938,-9.531511306762695 241.53366088867188,2.946430206298828 241.53366088867188,2.946430206298828 z" id="svg_249" class=""/><path fill="none" d="M93.15554809570312,114.31615734100342 c-7.276000022888184,-0.14800000190734863 -14.418000221252441,0.5609999895095825 -21.30299949645996,2.0239999294281006 C78.70254516601562,115.06616497039795 85.83155822753906,114.37115001678467 93.15554809570312,114.31615734100342 z" id="svg_250" class=""/><path fill="#171616" d="M4.1915998458862305,179.14931774139404 c12.890000343322754,-15.503000259399414 34.1349983215332,-26.4950008392334 58.86800003051758,-29.215999603271484 c10.70300006866455,-9.109000205993652 25.062000274658203,-14.913999557495117 42.98699951171875,-14.041000366210938 c16.347999572753906,0.796999990940094 20.645999908447266,3.9709999561309814 30.746000289916992,6.861999988555908 l-1.3550000190734863,-18.792999267578125 c-10.451000213623047,-4.064000129699707 -15.600000381469727,-5.816999912261963 -26.007999420166016,-7.883999824523926 c-5.464000225067139,-1.0859999656677246 -10.904000282287598,-1.652999997138977 -16.27400016784668,-1.7619999647140503 c-7.322999954223633,0.054999999701976776 -14.45300006866455,0.75 -21.30299949645996,2.0239999294281006 C38.37161636352539,123.45725536346436 11.008609771728516,148.38430309295654 4.1915998458862305,179.14931774139404 z" id="svg_251" class=""/><path fill="#0085B7" d="M4.1915998458862305,179.14931774139404 c-0.8050000071525574,3.63100004196167 -1.3259999752044678,7.341000080108643 -1.534999966621399,11.11400032043457 c-1.2790000438690186,23.136999130249023 6.140999794006348,56.46799850463867 39.31999969482422,71.28299713134766 c-12.414999961853027,-10.194000244140625 -20.089000701904297,-24.190000534057617 -20.097999572753906,-39.643001556396484 c-0.012000000104308128,-15.744000434875488 7.931000232696533,-29.979999542236328 20.742000579833984,-40.22999954223633 c3.515000104904175,-11.633000373840332 10.35099983215332,-23.15399932861328 20.437999725341797,-31.739999771118164 C38.32661819458008,152.65432262420654 17.080615997314453,163.64629650115967 4.1915998458862305,179.14931774139404 z" id="svg_252" class=""/><path fill="#7BB3E7" d="M21.878620147705078,221.90432262420654 c0.008999999612569809,15.45199966430664 7.683000087738037,29.447999954223633 20.097999572753906,39.643001556396484 c14.237000465393066,6.355999946594238 33.21200180053711,9.307999610900879 58.28499984741211,6.576000213623047 c-12.652000427246094,1.0329999923706055 -59.69499969482422,-10.597999572753906 -60.417999267578125,-67.75599670410156 c-0.07500000298023224,-5.958000183105469 0.8569999933242798,-12.342000007629395 2.7769999504089355,-18.69300079345703 C29.809619903564453,191.92431163787842 21.867618560791016,206.16030406951904 21.878620147705078,221.90432262420654 z" id="svg_253" class=""/></g></svg>