<?xml version="1.0" encoding="utf-8"?>
<!-- Generator: Adobe Illustrator 16.0.3, SVG Export Plug-In . SVG Version: 6.00 Build 0)  -->
<!DOCTYPE svg PUBLIC "-//W3C//DTD SVG 1.1//EN" "http://www.w3.org/Graphics/SVG/1.1/DTD/svg11.dtd">
<svg version="1.1" id="Capa_1" xmlns="http://www.w3.org/2000/svg" xmlns:xlink="http://www.w3.org/1999/xlink" x="0px" y="0px"
	 width="430.224px" height="402.041px" viewBox="0 0 430.224 402.041" enable-background="new 0 0 430.224 402.041"
	 xml:space="preserve">
<g>
	<g>
		<g>
			<path fill="#171616" d="M66.032-524.801l0.03,34.187c-0.001,2.092-0.212,3.486-0.622,4.185c-0.642,1.08-1.637,1.677-2.993,1.792
				l-0.002,4.411l1.202-0.23c2.257-0.428,4.017-1.396,5.275-2.905c1.07-1.237,1.601-3.386,1.601-6.438l-0.029-35.005L66.032-524.801
				z"/>
			<path fill="#171616" d="M97.868-524.514c-4.635-0.147-8.633,1.504-11.983,4.967c-3.351,3.467-5.022,7.614-5.021,12.453
				c-0.001,4.637,1.555,8.639,4.666,12.005c3.11,3.358,6.904,5.096,11.391,5.214c4.637,0.147,8.636-1.506,12.01-4.973
				c3.37-3.465,5.058-7.574,5.056-12.33c-0.008-4.644-1.572-8.65-4.698-12.036C106.156-522.593,102.346-524.359,97.868-524.514z
				 M106.035-497.965c-2.509,2.723-5.536,3.982-9.09,3.793c-3.324-0.116-6.136-1.482-8.443-4.103
				c-2.306-2.618-3.419-5.677-3.346-9.173c0.034-3.537,1.26-6.559,3.677-9.068c2.416-2.506,5.345-3.739,8.781-3.701
				c3.286-0.003,6.091,1.236,8.414,3.722c2.325,2.486,3.543,5.476,3.658,8.97C109.763-503.871,108.548-500.686,106.035-497.965z"/>
			<path fill="#171616" d="M157.332-508.076c-0.001-4.1-1.527-7.812-4.578-11.137c-3.169-3.361-6.901-5.179-11.197-5.447
				c-4.787-0.266-8.938,1.391-12.46,4.971s-5.228,7.848-5.112,12.795c0.078,4.68,1.818,8.709,5.21,12.09
				c3.39,3.383,7.29,5.038,11.7,4.953c3.502-0.039,6.689-1.104,9.55-3.199c2.863-2.087,4.896-4.912,6.102-8.471l-4.58,0.004
				c-2.183,4.758-5.815,7.178-10.903,7.257c-3.279,0.044-6.124-1.016-8.539-3.187c-2.411-2.159-3.788-4.904-4.13-8.232l28.939-0.023
				L157.332-508.076z M128.393-509.74c0.601-3.133,2.06-5.668,4.375-7.601c2.319-1.937,5.021-2.886,8.11-2.852
				c3.092,0.04,5.749,1.013,7.972,2.931c2.224,1.904,3.637,4.415,4.244,7.506L128.393-509.74z"/>
			<polygon fill="#171616" points="166.821,-528.739 166.836,-490.679 171.131,-490.685 171.113,-528.746 			"/>
		</g>
		<g>
			<path fill="#0085B7" d="M199.405-524.412c-4.638-0.154-8.641,1.504-12.011,4.968c-3.372,3.466-5.057,7.575-5.052,12.333
				c0,0.035-0.001,0.113-0.001,0.229l0.018,27.905l4.179-0.005l-0.005-16.646c3.202,3.712,7.179,5.66,11.924,5.849
				c4.64,0.152,8.631-1.501,11.982-4.969c3.354-3.458,5.027-7.608,5.027-12.444c-0.003-4.641-1.563-8.646-4.669-12.008
				C207.682-522.562,203.887-524.297,199.405-524.412z M207.424-497.804c-2.422,2.489-5.335,3.729-8.741,3.733
				c-3.332,0.004-6.173-1.24-8.522-3.727c-2.348-2.484-3.555-5.471-3.637-8.97c-0.075-3.648,1.144-6.837,3.661-9.56
				c2.517-2.719,5.548-3.983,9.107-3.794c3.332,0.118,6.154,1.483,8.466,4.104c2.307,2.621,3.448,5.678,3.411,9.172
				C211.097-503.307,209.848-500.293,207.424-497.804z"/>
			<path fill="#0085B7" d="M242.307-524.499c-4.635-0.15-8.63,1.503-11.981,4.968c-3.35,3.46-5.029,7.615-5.024,12.447
				c-0.001,4.641,1.555,8.643,4.666,12.007c3.112,3.364,6.91,5.099,11.395,5.213c4.635,0.149,8.636-1.51,12.003-4.969
				c3.373-3.46,5.061-7.574,5.058-12.331c-0.005-4.642-1.57-8.652-4.698-12.037C250.593-522.576,246.79-524.351,242.307-524.499z
				 M250.477-497.954c-2.513,2.726-5.54,3.989-9.092,3.795c-3.321-0.112-6.139-1.483-8.443-4.101
				c-2.306-2.625-3.424-5.68-3.348-9.175c0.037-3.538,1.267-6.56,3.682-9.063c2.414-2.51,5.343-3.744,8.775-3.707
				c3.289-0.005,6.091,1.236,8.414,3.721c2.324,2.489,3.548,5.476,3.662,8.972C254.203-503.858,252.983-500.672,250.477-497.954z"/>
			<path fill="#0085B7" d="M276.102-523.129c-1.769,0.969-3.109,2.342-4.006,4.121l-0.006-4.7l-4.015,0.003l0.015,33.066
				l4.521-0.003l-0.008-19.781c0.002-2.127,0.357-3.831,1.071-5.104c0.451-0.773,1.301-1.684,2.545-2.732
				c1.242-1.043,2.86-1.605,4.859-1.685l-0.003-4.407C279.381-524.427,277.72-524.018,276.102-523.129z"/>
			<path fill="#0085B7" d="M302.839-524.484c-4.637-0.15-8.643,1.508-12.012,4.967c-3.369,3.469-5.055,7.578-5.054,12.337
				c0,0.036-0.001,0.113,0.003,0.231l0.009,27.9l4.183-0.001l-0.008-16.646c3.208,3.708,7.184,5.66,11.931,5.849
				c4.636,0.154,8.626-1.503,11.982-4.967c3.35-3.464,5.027-7.613,5.022-12.449c-0.003-4.638-1.558-8.643-4.669-12.006
				C311.118-522.631,307.323-524.369,302.839-524.484z M310.857-497.873c-2.423,2.485-5.332,3.732-8.741,3.732
				c-3.332,0.003-6.17-1.238-8.52-3.721c-2.351-2.486-3.56-5.477-3.639-8.974c-0.077-3.651,1.142-6.839,3.658-9.56
				c2.518-2.721,5.554-3.986,9.114-3.795c3.33,0.114,6.147,1.483,8.461,4.104c2.307,2.624,3.447,5.68,3.411,9.175
				C314.526-503.375,313.281-500.363,310.857-497.873z"/>
			<path fill="#0085B7" d="M361.797-507.291c0.147-4.604-1.358-8.593-4.525-11.977c-3.167-3.383-7.012-5.15-11.534-5.302
				c-4.679-0.189-8.687,1.448-12.036,4.913c-3.357,3.462-5.027,7.611-5.025,12.445c-0.002,4.641,1.562,8.643,4.676,12.006
				c3.116,3.36,6.89,5.118,11.322,5.27c5.064,0.153,9.341-1.821,12.83-5.924l0.006,5.163l4.295-0.004l-0.009-16.359L361.797-507.291
				z M353.851-498.043c-2.513,2.696-5.54,3.97-9.089,3.816c-3.288-0.153-6.094-1.535-8.413-4.151
				c-2.325-2.615-3.456-5.665-3.381-9.156c0.037-3.523,1.263-6.534,3.679-9.014c2.418-2.483,5.344-3.728,8.78-3.726
				c3.29-0.004,6.099,1.236,8.443,3.714c2.343,2.478,3.556,5.462,3.631,8.953C357.579-503.924,356.36-500.738,353.851-498.043z"/>
			<path fill="#0085B7" d="M376.268-501.035l-0.01-18.679l7.461-0.007v-4.119l-7.461,0.006l-0.003-4.879l-4.295,0.002l0.01,28.432
				c0.008,6.848,3.926,10.269,11.766,10.262l-0.003-3.654C378.762-493.671,376.274-496.123,376.268-501.035z"/>
			<path fill="#0085B7" d="M397.464-501.049l-0.006-18.684l7.461-0.002l-0.005-4.122l-7.459,0.007l-0.005-4.876h-4.296l0.014,28.431
				c0.005,6.848,3.923,10.269,11.763,10.264l-0.002-3.656C399.956-493.685,397.467-496.135,397.464-501.049z"/>
			<path fill="#0085B7" d="M438.092-519.32c-3.128-3.383-6.934-5.152-11.418-5.301c-4.633-0.154-8.627,1.506-11.98,4.967
				c-3.35,3.462-5.023,7.614-5.025,12.445c0.005,4.643,1.561,8.646,4.672,12.01c3.109,3.359,6.905,5.095,11.389,5.209
				c4.635,0.157,8.64-1.5,12.01-4.965c3.37-3.464,5.054-7.574,5.053-12.333C442.792-511.927,441.224-515.938,438.092-519.32z
				 M434.846-498.073c-2.509,2.716-5.542,3.983-9.089,3.792c-3.325-0.113-6.139-1.484-8.443-4.102
				c-2.304-2.623-3.419-5.68-3.349-9.178c0.036-3.533,1.258-6.555,3.676-9.061c2.422-2.51,5.345-3.742,8.778-3.707
				c3.288-0.001,6.095,1.24,8.418,3.724c2.323,2.485,3.547,5.475,3.658,8.972C438.574-503.982,437.356-500.794,434.846-498.073z"/>
		</g>
	</g>
	
		<text transform="matrix(0.9953 0.0036 -0.0037 1 60.8794 -449.5039)" font-family="'CaviarDreams'" font-size="19.4771" letter-spacing="9.042">CREATIVIDAD + DISEÑO</text>
	<path fill-rule="evenodd" clip-rule="evenodd" fill="#171616" d="M335.697-834.685c52.003,10.254,71.865,47.998,70.662,86.036
		c-1.725,54.559-66.917,99.173-131.417,66.084l-2.117-17.647c53.326,24.846,97.563-8.142,99.202-58.259
		c0.782-23.93-17.666-65.996-57.667-66.123c-28.88-0.092-47.568,20.766-51.242,33.109c-12.705,42.691,10.087,151.947-2.261,183.16
		c-22.378,56.574-87.282,48.027-87.282,48.027c38.645-1.277,63.93-24.033,71.077-47.092c7.956-25.665-12.89-149.967-1.651-180.254
		C265.087-847.165,335.697-834.685,335.697-834.685z"/>
	<g>
		<defs>
			<path id="SVGID_1_" d="M194.426-569.51c-83.51,9.099-99.434-44.795-97.605-77.859c2.606-47.176,53.648-84.733,106.772-74.186
				c10.409,2.066,15.557,3.82,26.009,7.884l1.354,18.793c-10.099-2.892-14.397-6.065-30.746-6.862
				c-44.047-2.147-66.56,36.03-66.202,64.474C134.731-580.107,181.773-568.477,194.426-569.51z"/>
		</defs>
		<clipPath id="SVGID_2_">
			<use xlink:href="#SVGID_1_"  overflow="visible"/>
		</clipPath>
		<path clip-path="url(#SVGID_2_)" fill-rule="evenodd" clip-rule="evenodd" fill="#171616" d="M285.408-646.186
			c0.027,42.621-43.439,77.191-97.093,77.211c-53.653,0.021-97.17-34.512-97.203-77.136c-0.025-42.622,43.441-77.194,97.097-77.216
			C241.856-723.35,285.374-688.813,285.408-646.186z"/>
		<path clip-path="url(#SVGID_2_)" fill-rule="evenodd" clip-rule="evenodd" fill="#0085B7" d="M253.292-623.762
			c0.026,35.697-37.593,64.652-84.023,64.672c-46.432,0.019-84.093-28.904-84.117-64.604c-0.025-35.697,37.595-64.651,84.024-64.672
			C215.61-688.383,253.268-659.459,253.292-623.762z"/>
		<path clip-path="url(#SVGID_2_)" fill-rule="evenodd" clip-rule="evenodd" fill="#7BB3E7" d="M255.473-615.789
			c0.019,31.201-31.178,56.506-69.68,56.521c-38.502,0.018-69.733-25.265-69.751-56.461c-0.022-31.203,31.17-56.51,69.673-56.523
			C224.218-672.269,255.448-646.986,255.473-615.789z"/>
	</g>
</g>
<rect x="441.542" y="-800.824" fill-rule="evenodd" clip-rule="evenodd" fill="#EDF3FB" stroke="#4B9DDF" stroke-miterlimit="22.9256" width="34.501" height="34.499"/>
<rect x="441.562" y="-766.326" fill-rule="evenodd" clip-rule="evenodd" fill="#EDF3FB" stroke="#4B9DDF" stroke-miterlimit="22.9256" width="34.498" height="34.5"/>
<rect x="441.504" y="-869.825" fill-rule="evenodd" clip-rule="evenodd" fill="#EDF3FB" stroke="#4B9DDF" stroke-miterlimit="22.9256" width="34.5" height="34.5"/>
<rect x="441.524" y="-835.325" fill-rule="evenodd" clip-rule="evenodd" fill="#EDF3FB" stroke="#4B9DDF" stroke-miterlimit="22.9256" width="34.498" height="34.5"/>
<rect x="441.589" y="-662.828" fill-rule="evenodd" clip-rule="evenodd" fill="#EDF3FB" stroke="#4B9DDF" stroke-miterlimit="22.9256" width="34.498" height="34.501"/>
<rect x="441.608" y="-628.326" fill-rule="evenodd" clip-rule="evenodd" fill="#EDF3FB" stroke="#4B9DDF" stroke-miterlimit="22.9256" width="34.499" height="34.498"/>
<rect x="441.551" y="-731.827" fill-rule="evenodd" clip-rule="evenodd" fill="#EDF3FB" stroke="#4B9DDF" stroke-miterlimit="22.9256" width="34.498" height="34.502"/>
<rect x="27.392" y="-800.596" fill-rule="evenodd" clip-rule="evenodd" fill="#EDF3FB" stroke="#4B9DDF" stroke-miterlimit="22.9256" width="34.498" height="34.5"/>
<rect x="61.891" y="-800.615" fill-rule="evenodd" clip-rule="evenodd" fill="none" stroke="#4B9DDF" stroke-miterlimit="22.9256" width="34.502" height="34.5"/>
<rect x="96.392" y="-800.633" fill-rule="evenodd" clip-rule="evenodd" fill="none" stroke="#4B9DDF" stroke-miterlimit="22.9256" width="34.498" height="34.499"/>
<rect x="27.412" y="-766.097" fill-rule="evenodd" clip-rule="evenodd" fill="#EDF3FB" stroke="#4B9DDF" stroke-miterlimit="22.9256" width="34.498" height="34.501"/>
<rect x="61.91" y="-766.115" fill-rule="evenodd" clip-rule="evenodd" fill="none" stroke="#4B9DDF" stroke-miterlimit="22.9256" width="34.5" height="34.5"/>
<rect x="96.411" y="-766.134" fill-rule="evenodd" clip-rule="evenodd" fill="none" stroke="#4B9DDF" stroke-miterlimit="22.9256" width="34.499" height="34.5"/>
<rect x="27.354" y="-869.595" fill-rule="evenodd" clip-rule="evenodd" fill="#96C2EC" stroke="#4B9DDF" stroke-miterlimit="22.9256" width="34.498" height="34.499"/>
<rect x="61.853" y="-869.614" fill-rule="evenodd" clip-rule="evenodd" fill="#EDF3FB" stroke="#4B9DDF" stroke-miterlimit="22.9256" width="34.5" height="34.498"/>
<rect x="96.353" y="-869.632" fill-rule="evenodd" clip-rule="evenodd" fill="#EDF3FB" stroke="#4B9DDF" stroke-miterlimit="22.9256" width="34.5" height="34.498"/>
<rect x="27.373" y="-835.096" fill-rule="evenodd" clip-rule="evenodd" fill="#EDF3FB" stroke="#4B9DDF" stroke-miterlimit="22.9256" width="34.5" height="34.5"/>
<rect x="61.872" y="-835.115" fill-rule="evenodd" clip-rule="evenodd" fill="none" stroke="#4B9DDF" stroke-miterlimit="22.9256" width="34.5" height="34.5"/>
<rect x="96.372" y="-835.135" fill-rule="evenodd" clip-rule="evenodd" fill="none" stroke="#4B9DDF" stroke-miterlimit="22.9256" width="34.499" height="34.501"/>
<rect x="130.954" y="-800.652" fill-rule="evenodd" clip-rule="evenodd" fill="none" stroke="#4B9DDF" stroke-miterlimit="22.9256" width="34.499" height="34.498"/>
<rect x="165.452" y="-800.672" fill-rule="evenodd" clip-rule="evenodd" fill="none" stroke="#4B9DDF" stroke-miterlimit="22.9256" width="34.499" height="34.5"/>
<rect x="199.951" y="-800.693" fill-rule="evenodd" clip-rule="evenodd" fill="none" stroke="#4B9DDF" stroke-miterlimit="22.9256" width="34.5" height="34.502"/>
<rect x="234.452" y="-800.708" fill-rule="evenodd" clip-rule="evenodd" fill="none" stroke="#4B9DDF" stroke-miterlimit="22.9256" width="34.501" height="34.498"/>
<rect x="130.973" y="-766.155" fill-rule="evenodd" clip-rule="evenodd" fill="none" stroke="#4B9DDF" stroke-miterlimit="22.9256" width="34.498" height="34.501"/>
<rect x="165.471" y="-766.173" fill-rule="evenodd" clip-rule="evenodd" fill="none" stroke="#4B9DDF" stroke-miterlimit="22.9256" width="34.5" height="34.5"/>
<rect x="199.971" y="-766.19" fill-rule="evenodd" clip-rule="evenodd" fill="none" stroke="#4B9DDF" stroke-miterlimit="22.9256" width="34.501" height="34.498"/>
<rect x="234.471" y="-766.212" fill-rule="evenodd" clip-rule="evenodd" fill="none" stroke="#4B9DDF" stroke-miterlimit="22.9256" width="34.499" height="34.5"/>
<rect x="130.916" y="-869.651" fill-rule="evenodd" clip-rule="evenodd" fill="#EDF3FB" stroke="#4B9DDF" stroke-miterlimit="22.9256" width="34.498" height="34.499"/>
<rect x="165.414" y="-869.671" fill-rule="evenodd" clip-rule="evenodd" fill="#EDF3FB" stroke="#4B9DDF" stroke-miterlimit="22.9256" width="34.499" height="34.5"/>
<rect x="199.913" y="-869.691" fill-rule="evenodd" clip-rule="evenodd" fill="#EDF3FB" stroke="#4B9DDF" stroke-miterlimit="22.9256" width="34.502" height="34.5"/>
<rect x="234.414" y="-869.709" fill-rule="evenodd" clip-rule="evenodd" fill="#EDF3FB" stroke="#4B9DDF" stroke-miterlimit="22.9256" width="34.499" height="34.5"/>
<rect x="130.935" y="-835.155" fill-rule="evenodd" clip-rule="evenodd" fill="none" stroke="#4B9DDF" stroke-miterlimit="22.9256" width="34.498" height="34.502"/>
<rect x="165.433" y="-835.171" fill-rule="evenodd" clip-rule="evenodd" fill="none" stroke="#4B9DDF" stroke-miterlimit="22.9256" width="34.499" height="34.499"/>
<rect x="199.932" y="-835.19" fill-rule="evenodd" clip-rule="evenodd" fill="none" stroke="#4B9DDF" stroke-miterlimit="22.9256" width="34.501" height="34.499"/>
<rect x="234.434" y="-835.211" fill-rule="evenodd" clip-rule="evenodd" fill="none" stroke="#4B9DDF" stroke-miterlimit="22.9256" width="34.5" height="34.5"/>
<rect x="27.436" y="-662.598" fill-rule="evenodd" clip-rule="evenodd" fill="#EDF3FB" stroke="#4B9DDF" stroke-miterlimit="22.9256" width="34.5" height="34.5"/>
<rect x="61.936" y="-662.617" fill-rule="evenodd" clip-rule="evenodd" fill="none" stroke="#4B9DDF" stroke-miterlimit="22.9256" width="34.5" height="34.5"/>
<rect x="96.436" y="-662.637" fill-rule="evenodd" clip-rule="evenodd" fill="none" stroke="#4B9DDF" stroke-miterlimit="22.9256" width="34.5" height="34.5"/>
<rect x="27.456" y="-628.098" fill-rule="evenodd" clip-rule="evenodd" fill="#EDF3FB" stroke="#4B9DDF" stroke-miterlimit="22.9256" width="34.5" height="34.498"/>
<rect x="61.956" y="-628.117" fill-rule="evenodd" clip-rule="evenodd" fill="none" stroke="#4B9DDF" stroke-miterlimit="22.9256" width="34.5" height="34.498"/>
<rect x="96.456" y="-628.136" fill-rule="evenodd" clip-rule="evenodd" fill="none" stroke="#4B9DDF" stroke-miterlimit="22.9256" width="34.499" height="34.498"/>
<rect x="27.399" y="-731.597" fill-rule="evenodd" clip-rule="evenodd" fill="#EDF3FB" stroke="#4B9DDF" stroke-miterlimit="22.9256" width="34.5" height="34.501"/>
<rect x="61.898" y="-731.616" fill-rule="evenodd" clip-rule="evenodd" fill="none" stroke="#4B9DDF" stroke-miterlimit="22.9256" width="34.5" height="34.5"/>
<rect x="96.398" y="-731.635" fill-rule="evenodd" clip-rule="evenodd" fill="none" stroke="#4B9DDF" stroke-miterlimit="22.9256" width="34.5" height="34.5"/>
<rect x="27.417" y="-697.096" fill-rule="evenodd" clip-rule="evenodd" fill="#EDF3FB" stroke="#4B9DDF" stroke-miterlimit="22.9256" width="34.5" height="34.498"/>
<rect x="61.917" y="-697.115" fill-rule="evenodd" clip-rule="evenodd" fill="none" stroke="#4B9DDF" stroke-miterlimit="22.9256" width="34.5" height="34.498"/>
<rect x="96.417" y="-697.134" fill-rule="evenodd" clip-rule="evenodd" fill="none" stroke="#4B9DDF" stroke-miterlimit="22.9256" width="34.502" height="34.498"/>
<rect x="131" y="-662.655" fill-rule="evenodd" clip-rule="evenodd" fill="none" stroke="#4B9DDF" stroke-miterlimit="22.9256" width="34.498" height="34.5"/>
<rect x="165.499" y="-662.672" fill-rule="evenodd" clip-rule="evenodd" fill="none" stroke="#4B9DDF" stroke-miterlimit="22.9256" width="34.499" height="34.498"/>
<rect x="199.999" y="-662.692" fill-rule="evenodd" clip-rule="evenodd" fill="none" stroke="#4B9DDF" stroke-miterlimit="22.9256" width="34.5" height="34.5"/>
<rect x="234.498" y="-662.712" fill-rule="evenodd" clip-rule="evenodd" fill="none" stroke="#4B9DDF" stroke-miterlimit="22.9256" width="34.5" height="34.5"/>
<rect x="131.019" y="-628.154" fill-rule="evenodd" clip-rule="evenodd" fill="none" stroke="#4B9DDF" stroke-miterlimit="22.9256" width="34.5" height="34.498"/>
<rect x="165.518" y="-628.175" fill-rule="evenodd" clip-rule="evenodd" fill="none" stroke="#4B9DDF" stroke-miterlimit="22.9256" width="34.498" height="34.501"/>
<rect x="200.017" y="-628.193" fill-rule="evenodd" clip-rule="evenodd" fill="none" stroke="#4B9DDF" stroke-miterlimit="22.9256" width="34.501" height="34.5"/>
<rect x="234.517" y="-628.211" fill-rule="evenodd" clip-rule="evenodd" fill="none" stroke="#4B9DDF" stroke-miterlimit="22.9256" width="34.5" height="34.498"/>
<rect x="130.96" y="-731.654" fill-rule="evenodd" clip-rule="evenodd" fill="none" stroke="#4B9DDF" stroke-miterlimit="22.9256" width="34.5" height="34.5"/>
<rect x="165.459" y="-731.674" fill-rule="evenodd" clip-rule="evenodd" fill="none" stroke="#4B9DDF" stroke-miterlimit="22.9256" width="34.501" height="34.501"/>
<rect x="199.961" y="-731.692" fill-rule="evenodd" clip-rule="evenodd" fill="none" stroke="#4B9DDF" stroke-miterlimit="22.9256" width="34.499" height="34.5"/>
<rect x="234.459" y="-731.711" fill-rule="evenodd" clip-rule="evenodd" fill="none" stroke="#4B9DDF" stroke-miterlimit="22.9256" width="34.5" height="34.5"/>
<rect x="130.979" y="-697.152" fill-rule="evenodd" clip-rule="evenodd" fill="none" stroke="#4B9DDF" stroke-miterlimit="22.9256" width="34.501" height="34.498"/>
<rect x="165.479" y="-697.173" fill-rule="evenodd" clip-rule="evenodd" fill="none" stroke="#4B9DDF" stroke-miterlimit="22.9256" width="34.5" height="34.5"/>
<rect x="199.98" y="-697.191" fill-rule="evenodd" clip-rule="evenodd" fill="none" stroke="#4B9DDF" stroke-miterlimit="22.9256" width="34.498" height="34.499"/>
<rect x="234.479" y="-697.211" fill-rule="evenodd" clip-rule="evenodd" fill="none" stroke="#4B9DDF" stroke-miterlimit="22.9256" width="34.5" height="34.5"/>
<rect x="268.983" y="-800.729" fill-rule="evenodd" clip-rule="evenodd" fill="none" stroke="#4B9DDF" stroke-miterlimit="22.9256" width="34.5" height="34.5"/>
<rect x="303.483" y="-800.749" fill-rule="evenodd" clip-rule="evenodd" fill="none" stroke="#4B9DDF" stroke-miterlimit="22.9256" width="34.498" height="34.5"/>
<rect x="337.981" y="-800.767" fill-rule="evenodd" clip-rule="evenodd" fill="none" stroke="#4B9DDF" stroke-miterlimit="22.9256" width="34.501" height="34.498"/>
<rect x="372.481" y="-800.786" fill-rule="evenodd" clip-rule="evenodd" fill="none" stroke="#4B9DDF" stroke-miterlimit="22.9256" width="34.498" height="34.499"/>
<rect x="269.002" y="-766.231" fill-rule="evenodd" clip-rule="evenodd" fill="none" stroke="#4B9DDF" stroke-miterlimit="22.9256" width="34.498" height="34.5"/>
<rect x="303.501" y="-766.248" fill-rule="evenodd" clip-rule="evenodd" fill="none" stroke="#4B9DDF" stroke-miterlimit="22.9256" width="34.498" height="34.498"/>
<rect x="338" y="-766.27" fill-rule="evenodd" clip-rule="evenodd" fill="none" stroke="#4B9DDF" stroke-miterlimit="22.9256" width="34.501" height="34.5"/>
<rect x="372.5" y="-766.288" fill-rule="evenodd" clip-rule="evenodd" fill="none" stroke="#4B9DDF" stroke-miterlimit="22.9256" width="34.501" height="34.5"/>
<rect x="268.945" y="-869.729" fill-rule="evenodd" clip-rule="evenodd" fill="#EDF3FB" stroke="#4B9DDF" stroke-miterlimit="22.9256" width="34.499" height="34.5"/>
<rect x="303.444" y="-869.748" fill-rule="evenodd" clip-rule="evenodd" fill="#EDF3FB" stroke="#4B9DDF" stroke-miterlimit="22.9256" width="34.499" height="34.5"/>
<rect x="337.943" y="-869.768" fill-rule="evenodd" clip-rule="evenodd" fill="#EDF3FB" stroke="#4B9DDF" stroke-miterlimit="22.9256" width="34.501" height="34.5"/>
<rect x="372.444" y="-869.786" fill-rule="evenodd" clip-rule="evenodd" fill="#EDF3FB" stroke="#4B9DDF" stroke-miterlimit="22.9256" width="34.498" height="34.499"/>
<rect x="268.964" y="-835.229" fill-rule="evenodd" clip-rule="evenodd" fill="none" stroke="#4B9DDF" stroke-miterlimit="22.9256" width="34.499" height="34.499"/>
<rect x="303.463" y="-835.249" fill-rule="evenodd" clip-rule="evenodd" fill="none" stroke="#4B9DDF" stroke-miterlimit="22.9256" width="34.499" height="34.5"/>
<rect x="337.962" y="-835.267" fill-rule="evenodd" clip-rule="evenodd" fill="none" stroke="#4B9DDF" stroke-miterlimit="22.9256" width="34.498" height="34.5"/>
<rect x="372.462" y="-835.287" fill-rule="evenodd" clip-rule="evenodd" fill="none" stroke="#4B9DDF" stroke-miterlimit="22.9256" width="34.5" height="34.5"/>
<rect x="407.042" y="-800.808" fill-rule="evenodd" clip-rule="evenodd" fill="none" stroke="#4B9DDF" stroke-miterlimit="22.9256" width="34.5" height="34.5"/>
<rect x="407.061" y="-766.307" fill-rule="evenodd" clip-rule="evenodd" fill="none" stroke="#4B9DDF" stroke-miterlimit="22.9256" width="34.501" height="34.5"/>
<rect x="407.005" y="-869.803" fill-rule="evenodd" clip-rule="evenodd" fill="#EDF3FB" stroke="#4B9DDF" stroke-miterlimit="22.9256" width="34.499" height="34.497"/>
<rect x="407.024" y="-835.307" fill-rule="evenodd" clip-rule="evenodd" fill="none" stroke="#4B9DDF" stroke-miterlimit="22.9256" width="34.501" height="34.5"/>
<rect x="269.029" y="-662.73" fill-rule="evenodd" clip-rule="evenodd" fill="none" stroke="#4B9DDF" stroke-miterlimit="22.9256" width="34.499" height="34.498"/>
<rect x="303.528" y="-662.75" fill-rule="evenodd" clip-rule="evenodd" fill="none" stroke="#4B9DDF" stroke-miterlimit="22.9256" width="34.5" height="34.499"/>
<rect x="338.027" y="-662.77" fill-rule="evenodd" clip-rule="evenodd" fill="none" stroke="#4B9DDF" stroke-miterlimit="22.9256" width="34.498" height="34.499"/>
<rect x="372.526" y="-662.789" fill-rule="evenodd" clip-rule="evenodd" fill="none" stroke="#4B9DDF" stroke-miterlimit="22.9256" width="34.501" height="34.499"/>
<rect x="269.048" y="-628.232" fill-rule="evenodd" clip-rule="evenodd" fill="none" stroke="#4B9DDF" stroke-miterlimit="22.9256" width="34.499" height="34.5"/>
<rect x="303.547" y="-628.252" fill-rule="evenodd" clip-rule="evenodd" fill="none" stroke="#4B9DDF" stroke-miterlimit="22.9256" width="34.498" height="34.5"/>
<rect x="338.046" y="-628.269" fill-rule="evenodd" clip-rule="evenodd" fill="none" stroke="#4B9DDF" stroke-miterlimit="22.9256" width="34.498" height="34.498"/>
<rect x="372.544" y="-628.29" fill-rule="evenodd" clip-rule="evenodd" fill="none" stroke="#4B9DDF" stroke-miterlimit="22.9256" width="34.502" height="34.501"/>
<rect x="268.991" y="-731.731" fill-rule="evenodd" clip-rule="evenodd" fill="none" stroke="#4B9DDF" stroke-miterlimit="22.9256" width="34.497" height="34.5"/>
<rect x="303.489" y="-731.75" fill-rule="evenodd" clip-rule="evenodd" fill="none" stroke="#4B9DDF" stroke-miterlimit="22.9256" width="34.502" height="34.5"/>
<rect x="337.989" y="-731.767" fill-rule="evenodd" clip-rule="evenodd" fill="none" stroke="#4B9DDF" stroke-miterlimit="22.9256" width="34.498" height="34.498"/>
<rect x="372.488" y="-731.788" fill-rule="evenodd" clip-rule="evenodd" fill="none" stroke="#4B9DDF" stroke-miterlimit="22.9256" width="34.501" height="34.5"/>
<rect x="269.01" y="-697.231" fill-rule="evenodd" clip-rule="evenodd" fill="none" stroke="#4B9DDF" stroke-miterlimit="22.9256" width="34.5" height="34.5"/>
<rect x="303.508" y="-697.25" fill-rule="evenodd" clip-rule="evenodd" fill="none" stroke="#4B9DDF" stroke-miterlimit="22.9256" width="34.498" height="34.499"/>
<rect x="338.008" y="-697.269" fill-rule="evenodd" clip-rule="evenodd" fill="none" stroke="#4B9DDF" stroke-miterlimit="22.9256" width="34.5" height="34.5"/>
<rect x="372.507" y="-697.288" fill-rule="evenodd" clip-rule="evenodd" fill="none" stroke="#4B9DDF" stroke-miterlimit="22.9256" width="34.5" height="34.499"/>
<rect x="407.089" y="-662.808" fill-rule="evenodd" clip-rule="evenodd" fill="none" stroke="#4B9DDF" stroke-miterlimit="22.9256" width="34.499" height="34.5"/>
<rect x="407.108" y="-628.309" fill-rule="evenodd" clip-rule="evenodd" fill="none" stroke="#4B9DDF" stroke-miterlimit="22.9256" width="34.5" height="34.5"/>
<rect x="407.05" y="-731.807" fill-rule="evenodd" clip-rule="evenodd" fill="none" stroke="#4B9DDF" stroke-miterlimit="22.9256" width="34.501" height="34.501"/>
<rect x="407.069" y="-697.306" fill-rule="evenodd" clip-rule="evenodd" fill="none" stroke="#4B9DDF" stroke-miterlimit="22.9256" width="34.5" height="34.498"/>
<rect x="441.57" y="-697.324" fill-rule="evenodd" clip-rule="evenodd" fill="#EDF3FB" stroke="#4B9DDF" stroke-miterlimit="22.9256" width="34.499" height="34.498"/>
<rect x="441.727" y="-524.83" fill-rule="evenodd" clip-rule="evenodd" fill="#EDF3FB" stroke="#4B9DDF" stroke-miterlimit="22.9256" width="34.498" height="34.501"/>
<rect x="441.746" y="-490.329" fill-rule="evenodd" clip-rule="evenodd" fill="#EDF3FB" stroke="#4B9DDF" stroke-miterlimit="22.9256" width="34.5" height="34.499"/>
<rect x="441.688" y="-593.828" fill-rule="evenodd" clip-rule="evenodd" fill="#EDF3FB" stroke="#4B9DDF" stroke-miterlimit="22.9256" width="34.5" height="34.499"/>
<rect x="441.707" y="-559.329" fill-rule="evenodd" clip-rule="evenodd" fill="#EDF3FB" stroke="#4B9DDF" stroke-miterlimit="22.9256" width="34.5" height="34.499"/>
<rect x="441.733" y="-455.83" fill-rule="evenodd" clip-rule="evenodd" fill="#EDF3FB" stroke="#4B9DDF" stroke-miterlimit="22.9256" width="34.5" height="34.5"/>
<rect x="27.577" y="-524.6" fill-rule="evenodd" clip-rule="evenodd" fill="#EDF3FB" stroke="#4B9DDF" stroke-miterlimit="22.9256" width="34.497" height="34.5"/>
<rect x="62.076" y="-524.619" fill-rule="evenodd" clip-rule="evenodd" fill="none" stroke="#4B9DDF" stroke-miterlimit="22.9256" width="34.503" height="34.5"/>
<rect x="96.576" y="-524.638" fill-rule="evenodd" clip-rule="evenodd" fill="none" stroke="#4B9DDF" stroke-miterlimit="22.9256" width="34.498" height="34.499"/>
<rect x="27.596" y="-490.101" fill-rule="evenodd" clip-rule="evenodd" fill="#EDF3FB" stroke="#4B9DDF" stroke-miterlimit="22.9256" width="34.499" height="34.5"/>
<rect x="62.094" y="-490.118" fill-rule="evenodd" clip-rule="evenodd" fill="none" stroke="#4B9DDF" stroke-miterlimit="22.9256" width="34.501" height="34.498"/>
<rect x="96.596" y="-490.138" fill-rule="evenodd" clip-rule="evenodd" fill="none" stroke="#4B9DDF" stroke-miterlimit="22.9256" width="34.5" height="34.5"/>
<rect x="27.538" y="-593.599" fill-rule="evenodd" clip-rule="evenodd" fill="#EDF3FB" stroke="#4B9DDF" stroke-miterlimit="22.9256" width="34.497" height="34.5"/>
<rect x="62.037" y="-593.618" fill-rule="evenodd" clip-rule="evenodd" fill="none" stroke="#4B9DDF" stroke-miterlimit="22.9256" width="34.502" height="34.5"/>
<rect x="96.537" y="-593.638" fill-rule="evenodd" clip-rule="evenodd" fill="none" stroke="#4B9DDF" stroke-miterlimit="22.9256" width="34.5" height="34.501"/>
<rect x="27.557" y="-559.1" fill-rule="evenodd" clip-rule="evenodd" fill="#EDF3FB" stroke="#4B9DDF" stroke-miterlimit="22.9256" width="34.501" height="34.5"/>
<rect x="62.056" y="-559.118" fill-rule="evenodd" clip-rule="evenodd" fill="none" stroke="#4B9DDF" stroke-miterlimit="22.9256" width="34.498" height="34.499"/>
<rect x="96.556" y="-559.136" fill-rule="evenodd" clip-rule="evenodd" fill="none" stroke="#4B9DDF" stroke-miterlimit="22.9256" width="34.501" height="34.499"/>
<rect x="131.137" y="-524.656" fill-rule="evenodd" clip-rule="evenodd" fill="none" stroke="#4B9DDF" stroke-miterlimit="22.9256" width="34.498" height="34.499"/>
<rect x="165.636" y="-524.676" fill-rule="evenodd" clip-rule="evenodd" fill="none" stroke="#4B9DDF" stroke-miterlimit="22.9256" width="34.5" height="34.499"/>
<rect x="200.136" y="-524.695" fill-rule="evenodd" clip-rule="evenodd" fill="none" stroke="#4B9DDF" stroke-miterlimit="22.9256" width="34.501" height="34.499"/>
<rect x="234.636" y="-524.715" fill-rule="evenodd" clip-rule="evenodd" fill="none" stroke="#4B9DDF" stroke-miterlimit="22.9256" width="34.501" height="34.5"/>
<rect x="131.157" y="-490.157" fill-rule="evenodd" clip-rule="evenodd" fill="none" stroke="#4B9DDF" stroke-miterlimit="22.9256" width="34.498" height="34.5"/>
<rect x="165.655" y="-490.177" fill-rule="evenodd" clip-rule="evenodd" fill="none" stroke="#4B9DDF" stroke-miterlimit="22.9256" width="34.5" height="34.5"/>
<rect x="200.155" y="-490.196" fill-rule="evenodd" clip-rule="evenodd" fill="none" stroke="#4B9DDF" stroke-miterlimit="22.9256" width="34.5" height="34.5"/>
<rect x="234.655" y="-490.215" fill-rule="evenodd" clip-rule="evenodd" fill="none" stroke="#4B9DDF" stroke-miterlimit="22.9256" width="34.499" height="34.5"/>
<rect x="131.098" y="-593.656" fill-rule="evenodd" clip-rule="evenodd" fill="none" stroke="#4B9DDF" stroke-miterlimit="22.9256" width="34.5" height="34.5"/>
<rect x="165.598" y="-593.676" fill-rule="evenodd" clip-rule="evenodd" fill="none" stroke="#4B9DDF" stroke-miterlimit="22.9256" width="34.5" height="34.5"/>
<rect x="200.097" y="-593.693" fill-rule="evenodd" clip-rule="evenodd" fill="none" stroke="#4B9DDF" stroke-miterlimit="22.9256" width="34.5" height="34.498"/>
<rect x="234.597" y="-593.714" fill-rule="evenodd" clip-rule="evenodd" fill="none" stroke="#4B9DDF" stroke-miterlimit="22.9256" width="34.501" height="34.5"/>
<rect x="131.117" y="-559.156" fill-rule="evenodd" clip-rule="evenodd" fill="none" stroke="#4B9DDF" stroke-miterlimit="22.9256" width="34.499" height="34.5"/>
<rect x="165.617" y="-559.176" fill-rule="evenodd" clip-rule="evenodd" fill="none" stroke="#4B9DDF" stroke-miterlimit="22.9256" width="34.5" height="34.5"/>
<rect x="200.117" y="-559.195" fill-rule="evenodd" clip-rule="evenodd" fill="none" stroke="#4B9DDF" stroke-miterlimit="22.9256" width="34.5" height="34.5"/>
<rect x="234.617" y="-559.215" fill-rule="evenodd" clip-rule="evenodd" fill="none" stroke="#4B9DDF" stroke-miterlimit="22.9256" width="34.499" height="34.5"/>
<rect x="27.583" y="-455.599" fill-rule="evenodd" clip-rule="evenodd" fill="#EDF3FB" stroke="#4B9DDF" stroke-miterlimit="22.9256" width="34.5" height="34.499"/>
<rect x="62.083" y="-455.619" fill-rule="evenodd" clip-rule="evenodd" fill="none" stroke="#4B9DDF" stroke-miterlimit="22.9256" width="34.499" height="34.5"/>
<rect x="96.471" y="-455.786" fill-rule="evenodd" clip-rule="evenodd" fill="none" stroke="#4B9DDF" stroke-miterlimit="22.9256" width="34.498" height="34.5"/>
<rect x="131.146" y="-455.657" fill-rule="evenodd" clip-rule="evenodd" fill="none" stroke="#4B9DDF" stroke-miterlimit="22.9256" width="34.499" height="34.498"/>
<rect x="165.644" y="-455.677" fill-rule="evenodd" clip-rule="evenodd" fill="none" stroke="#4B9DDF" stroke-miterlimit="22.9256" width="34.497" height="34.5"/>
<rect x="200.142" y="-455.696" fill-rule="evenodd" clip-rule="evenodd" fill="none" stroke="#4B9DDF" stroke-miterlimit="22.9256" width="34.502" height="34.501"/>
<rect x="234.643" y="-455.715" fill-rule="evenodd" clip-rule="evenodd" fill="none" stroke="#4B9DDF" stroke-miterlimit="22.9256" width="34.499" height="34.5"/>
<rect x="269.167" y="-524.733" fill-rule="evenodd" clip-rule="evenodd" fill="none" stroke="#4B9DDF" stroke-miterlimit="22.9256" width="34.497" height="34.499"/>
<rect x="303.665" y="-524.752" fill-rule="evenodd" clip-rule="evenodd" fill="none" stroke="#4B9DDF" stroke-miterlimit="22.9256" width="34.5" height="34.499"/>
<rect x="338.165" y="-524.771" fill-rule="evenodd" clip-rule="evenodd" fill="none" stroke="#4B9DDF" stroke-miterlimit="22.9256" width="34.501" height="34.499"/>
<rect x="372.666" y="-524.791" fill-rule="evenodd" clip-rule="evenodd" fill="none" stroke="#4B9DDF" stroke-miterlimit="22.9256" width="34.5" height="34.5"/>
<rect x="269.186" y="-490.234" fill-rule="evenodd" clip-rule="evenodd" fill="none" stroke="#4B9DDF" stroke-miterlimit="22.9256" width="34.5" height="34.5"/>
<rect x="303.684" y="-490.253" fill-rule="evenodd" clip-rule="evenodd" fill="none" stroke="#4B9DDF" stroke-miterlimit="22.9256" width="34.501" height="34.5"/>
<rect x="338.185" y="-490.272" fill-rule="evenodd" clip-rule="evenodd" fill="none" stroke="#4B9DDF" stroke-miterlimit="22.9256" width="34.5" height="34.5"/>
<rect x="372.685" y="-490.291" fill-rule="evenodd" clip-rule="evenodd" fill="none" stroke="#4B9DDF" stroke-miterlimit="22.9256" width="34.498" height="34.499"/>
<rect x="269.129" y="-593.733" fill-rule="evenodd" clip-rule="evenodd" fill="none" stroke="#4B9DDF" stroke-miterlimit="22.9256" width="34.499" height="34.5"/>
<rect x="303.627" y="-593.752" fill-rule="evenodd" clip-rule="evenodd" fill="none" stroke="#4B9DDF" stroke-miterlimit="22.9256" width="34.5" height="34.5"/>
<rect x="338.127" y="-593.772" fill-rule="evenodd" clip-rule="evenodd" fill="none" stroke="#4B9DDF" stroke-miterlimit="22.9256" width="34.5" height="34.501"/>
<rect x="372.627" y="-593.789" fill-rule="evenodd" clip-rule="evenodd" fill="none" stroke="#4B9DDF" stroke-miterlimit="22.9256" width="34.5" height="34.499"/>
<rect x="269.147" y="-559.233" fill-rule="evenodd" clip-rule="evenodd" fill="none" stroke="#4B9DDF" stroke-miterlimit="22.9256" width="34.499" height="34.5"/>
<rect x="303.646" y="-559.251" fill-rule="evenodd" clip-rule="evenodd" fill="none" stroke="#4B9DDF" stroke-miterlimit="22.9256" width="34.5" height="34.499"/>
<rect x="338.146" y="-559.271" fill-rule="evenodd" clip-rule="evenodd" fill="none" stroke="#4B9DDF" stroke-miterlimit="22.9256" width="34.502" height="34.5"/>
<rect x="372.647" y="-559.29" fill-rule="evenodd" clip-rule="evenodd" fill="none" stroke="#4B9DDF" stroke-miterlimit="22.9256" width="34.5" height="34.499"/>
<rect x="407.228" y="-524.81" fill-rule="evenodd" clip-rule="evenodd" fill="none" stroke="#4B9DDF" stroke-miterlimit="22.9256" width="34.501" height="34.499"/>
<rect x="407.246" y="-490.311" fill-rule="evenodd" clip-rule="evenodd" fill="none" stroke="#4B9DDF" stroke-miterlimit="22.9256" width="34.5" height="34.5"/>
<rect x="407.189" y="-593.811" fill-rule="evenodd" clip-rule="evenodd" fill="none" stroke="#4B9DDF" stroke-miterlimit="22.9256" width="34.498" height="34.502"/>
<rect x="407.208" y="-559.309" fill-rule="evenodd" clip-rule="evenodd" fill="none" stroke="#4B9DDF" stroke-miterlimit="22.9256" width="34.498" height="34.498"/>
<rect x="269.173" y="-455.734" fill-rule="evenodd" clip-rule="evenodd" fill="none" stroke="#4B9DDF" stroke-miterlimit="22.9256" width="34.499" height="34.5"/>
<rect x="303.673" y="-455.754" fill-rule="evenodd" clip-rule="evenodd" fill="none" stroke="#4B9DDF" stroke-miterlimit="22.9256" width="34.5" height="34.501"/>
<rect x="338.173" y="-455.772" fill-rule="evenodd" clip-rule="evenodd" fill="none" stroke="#4B9DDF" stroke-miterlimit="22.9256" width="34.499" height="34.5"/>
<rect x="372.672" y="-455.792" fill-rule="evenodd" clip-rule="evenodd" fill="none" stroke="#4B9DDF" stroke-miterlimit="22.9256" width="34.5" height="34.5"/>
<rect x="407.236" y="-455.812" fill-rule="evenodd" clip-rule="evenodd" fill="none" stroke="#4B9DDF" stroke-miterlimit="22.9256" width="34.496" height="34.501"/>
<rect x="441.75" y="-421.33" fill-rule="evenodd" clip-rule="evenodd" fill="#EDF3FB" stroke="#4B9DDF" stroke-miterlimit="22.9256" width="34.5" height="34.5"/>
<rect x="27.6" y="-421.098" fill-rule="evenodd" clip-rule="evenodd" fill="#EDF3FB" stroke="#4B9DDF" stroke-miterlimit="22.9256" width="34.501" height="34.498"/>
<rect x="62.101" y="-421.119" fill-rule="evenodd" clip-rule="evenodd" fill="#EDF3FB" stroke="#4B9DDF" stroke-miterlimit="22.9256" width="34.498" height="34.501"/>
<rect x="96.488" y="-421.286" fill-rule="evenodd" clip-rule="evenodd" fill="#EDF3FB" stroke="#4B9DDF" stroke-miterlimit="22.9256" width="34.498" height="34.5"/>
<rect x="131.163" y="-421.157" fill-rule="evenodd" clip-rule="evenodd" fill="#EDF3FB" stroke="#4B9DDF" stroke-miterlimit="22.9256" width="34.498" height="34.499"/>
<rect x="165.661" y="-421.177" fill-rule="evenodd" clip-rule="evenodd" fill="#EDF3FB" stroke="#4B9DDF" stroke-miterlimit="22.9256" width="34.498" height="34.501"/>
<rect x="200.16" y="-421.195" fill-rule="evenodd" clip-rule="evenodd" fill="#EDF3FB" stroke="#4B9DDF" stroke-miterlimit="22.9256" width="34.502" height="34.501"/>
<rect x="234.661" y="-421.215" fill-rule="evenodd" clip-rule="evenodd" fill="#EDF3FB" stroke="#4B9DDF" stroke-miterlimit="22.9256" width="34.5" height="34.501"/>
<rect x="269.191" y="-421.234" fill-rule="evenodd" clip-rule="evenodd" fill="#EDF3FB" stroke="#4B9DDF" stroke-miterlimit="22.9256" width="34.499" height="34.501"/>
<rect x="303.69" y="-421.253" fill-rule="evenodd" clip-rule="evenodd" fill="#EDF3FB" stroke="#4B9DDF" stroke-miterlimit="22.9256" width="34.499" height="34.5"/>
<rect x="338.19" y="-421.272" fill-rule="evenodd" clip-rule="evenodd" fill="#EDF3FB" stroke="#4B9DDF" stroke-miterlimit="22.9256" width="34.498" height="34.5"/>
<rect x="372.689" y="-421.292" fill-rule="evenodd" clip-rule="evenodd" fill="#EDF3FB" stroke="#4B9DDF" stroke-miterlimit="22.9256" width="34.5" height="34.5"/>
<rect x="407.253" y="-421.311" fill-rule="evenodd" clip-rule="evenodd" fill="#EDF3FB" stroke="#4B9DDF" stroke-miterlimit="22.9256" width="34.497" height="34.5"/>
<ellipse transform="matrix(1 0.0037 -0.0037 1 -2.7754 -1.1497)" fill-rule="evenodd" clip-rule="evenodd" fill="none" stroke="#4B9DDF" stroke-miterlimit="22.9256" cx="312.675" cy="-758.688" rx="59.352" ry="65.931"/>
<ellipse transform="matrix(1 0.0037 -0.0037 1 -2.7592 -1.1888)" fill-rule="evenodd" clip-rule="evenodd" fill="none" stroke="#4B9DDF" stroke-miterlimit="22.9256" cx="323.185" cy="-753.91" rx="83.386" ry="81.692"/>
<ellipse transform="matrix(1 0.0037 -0.0037 1 -2.3402 -0.6631)" fill-rule="evenodd" clip-rule="evenodd" fill="none" stroke="#4B9DDF" stroke-miterlimit="22.9256" cx="180.32" cy="-640.791" rx="83.385" ry="81.693"/>
<ellipse transform="matrix(1 0.0037 -0.0037 1 -2.3278 -0.7134)" fill-rule="evenodd" clip-rule="evenodd" fill="none" stroke="#4B9DDF" stroke-miterlimit="22.9256" cx="193.456" cy="-635.431" rx="59.414" ry="65.931"/>
<text transform="matrix(1 0 0 1 182.4438 -375.5771)" fill="#9BC5ED" font-family="'MyriadPro-Regular'" font-size="12">área mínima de interferencia</text>
<text transform="matrix(1 0 0 1 40.3442 -849.3545)" fill="#0085B7" font-family="'MyriadPro-Regular'" font-size="12">A</text>
<text transform="matrix(1 0 0 1 241.645 -885.9331)" fill="#0085B7" font-family="'MyriadPro-Regular'" font-size="12">9 A</text>
<text transform="matrix(1 0 0 1 485.0474 -711.439)" fill="#0085B7" font-family="'MyriadPro-Regular'" font-size="12">8 A</text>
<g>
	<g>
		<line fill="none" stroke="#FE110A" stroke-miterlimit="22.9256" x1="493.07" y1="-829.051" x2="493.07" y2="-731.834"/>
		<g>
			<path fill="#FE110A" d="M493.07-835.086c-1.054,2.84-2.852,6.363-4.756,8.547l4.756-1.72l4.755,1.72
				C495.92-828.723,494.123-832.247,493.07-835.086z"/>
		</g>
	</g>
</g>
<g>
	<g>
		
			<line fill="none" stroke="#FE110A" stroke-width="1.1529" stroke-miterlimit="22.9256" x1="493.07" y1="-566.795" x2="493.07" y2="-697.087"/>
		<g>
			<path fill="#FE110A" d="M493.07-559.837c1.215-3.274,3.288-7.337,5.483-9.854l-5.483,1.983l-5.482-1.983
				C489.784-567.174,491.856-563.111,493.07-559.837z"/>
		</g>
	</g>
</g>
<g>
	<g>
		
			<line fill="none" stroke="#FE110A" stroke-width="1.1473" stroke-miterlimit="22.9256" x1="104.348" y1="-889.455" x2="233.333" y2="-889.455"/>
		<g>
			<path fill="#FE110A" d="M97.424-889.455c3.258,1.209,7.301,3.271,9.807,5.457l-1.974-5.457l1.974-5.455
				C104.725-892.726,100.682-890.663,97.424-889.455z"/>
		</g>
	</g>
</g>
<g>
	<g>
		
			<line fill="none" stroke="#FE110A" stroke-width="1.1529" stroke-miterlimit="22.9256" x1="398.372" y1="-889.455" x2="268.08" y2="-889.455"/>
		<g>
			<path fill="#FE110A" d="M405.33-889.455c-3.274-1.215-7.337-3.288-9.854-5.483l1.983,5.483l-1.983,5.482
				C397.993-886.168,402.055-888.241,405.33-889.455z"/>
		</g>
	</g>
</g>
<g>
	<g>
		<path fill="#171616" d="M30.371,333.92l0.031,34.187c-0.002,2.092-0.213,3.486-0.623,4.185c-0.641,1.08-1.637,1.677-2.992,1.792
			l-0.002,4.411l1.201-0.23c2.258-0.428,4.018-1.396,5.275-2.905c1.07-1.237,1.602-3.386,1.602-6.438l-0.029-35.005L30.371,333.92z"
			/>
		<path fill="#171616" d="M62.207,334.207c-4.635-0.147-8.633,1.504-11.982,4.967c-3.352,3.467-5.023,7.614-5.021,12.453
			c-0.002,4.637,1.555,8.639,4.666,12.005c3.109,3.358,6.904,5.096,11.391,5.214c4.637,0.147,8.635-1.506,12.01-4.973
			c3.369-3.465,5.057-7.574,5.055-12.33c-0.008-4.644-1.572-8.65-4.697-12.036C70.496,336.128,66.685,334.361,62.207,334.207z
			 M70.375,360.756c-2.51,2.723-5.537,3.982-9.09,3.793c-3.324-0.116-6.137-1.482-8.443-4.103c-2.307-2.618-3.42-5.677-3.346-9.173
			c0.033-3.537,1.26-6.559,3.676-9.068c2.416-2.506,5.346-3.739,8.781-3.701c3.287-0.003,6.092,1.236,8.414,3.722
			c2.326,2.486,3.543,5.476,3.658,8.97C74.103,354.85,72.888,358.035,70.375,360.756z"/>
		<path fill="#171616" d="M121.671,350.645c-0.002-4.1-1.527-7.812-4.578-11.137c-3.17-3.361-6.902-5.179-11.197-5.447
			c-4.787-0.266-8.939,1.391-12.461,4.971s-5.227,7.848-5.111,12.795c0.078,4.68,1.818,8.709,5.209,12.09
			c3.391,3.383,7.291,5.038,11.701,4.953c3.502-0.039,6.689-1.104,9.549-3.199c2.863-2.087,4.896-4.912,6.102-8.471l-4.58,0.004
			c-2.182,4.758-5.814,7.178-10.902,7.257c-3.279,0.044-6.125-1.016-8.539-3.187c-2.412-2.159-3.789-4.904-4.131-8.232l28.939-0.023
			V350.645z M92.732,348.98c0.602-3.133,2.061-5.668,4.375-7.601c2.32-1.937,5.021-2.886,8.111-2.852
			c3.092,0.04,5.748,1.013,7.971,2.931c2.225,1.904,3.637,4.415,4.244,7.506L92.732,348.98z"/>
		<polygon fill="#171616" points="131.16,329.981 131.175,368.042 135.47,368.036 135.453,329.975 		"/>
	</g>
	<g>
		<path fill="#0085B7" d="M163.744,334.309c-4.637-0.154-8.641,1.504-12.01,4.968c-3.373,3.466-5.057,7.575-5.053,12.333
			c0,0.035,0,0.113,0,0.229l0.018,27.905l4.178-0.005l-0.004-16.646c3.201,3.712,7.178,5.66,11.924,5.849
			c4.639,0.152,8.631-1.501,11.982-4.969c3.354-3.458,5.027-7.608,5.027-12.444c-0.004-4.641-1.563-8.646-4.67-12.008
			C172.021,336.159,168.226,334.424,163.744,334.309z M171.763,360.917c-2.422,2.489-5.334,3.729-8.74,3.733
			c-3.332,0.004-6.174-1.24-8.523-3.727c-2.348-2.484-3.555-5.471-3.637-8.97c-0.074-3.648,1.145-6.837,3.662-9.56
			c2.516-2.719,5.547-3.983,9.107-3.794c3.332,0.118,6.154,1.483,8.465,4.104c2.307,2.621,3.449,5.678,3.412,9.172
			C175.437,355.414,174.187,358.428,171.763,360.917z"/>
		<path fill="#0085B7" d="M206.646,334.222c-4.635-0.15-8.629,1.503-11.98,4.968c-3.35,3.46-5.029,7.615-5.025,12.447
			c0,4.641,1.555,8.643,4.666,12.007c3.113,3.364,6.91,5.099,11.395,5.213c4.635,0.149,8.637-1.51,12.004-4.969
			c3.373-3.46,5.061-7.574,5.057-12.331c-0.004-4.642-1.57-8.652-4.697-12.037C214.933,336.145,211.128,334.37,206.646,334.222z
			 M214.816,360.767c-2.512,2.726-5.539,3.989-9.092,3.795c-3.32-0.112-6.139-1.483-8.443-4.101
			c-2.305-2.625-3.424-5.68-3.348-9.175c0.037-3.538,1.268-6.56,3.682-9.063c2.414-2.51,5.344-3.744,8.775-3.707
			c3.289-0.005,6.092,1.236,8.414,3.721c2.324,2.489,3.549,5.476,3.662,8.972C218.542,354.862,217.322,358.049,214.816,360.767z"/>
		<path fill="#0085B7" d="M240.441,335.592c-1.768,0.969-3.109,2.342-4.006,4.121l-0.006-4.7l-4.014,0.003l0.014,33.066l4.521-0.003
			l-0.008-19.781c0.002-2.127,0.357-3.831,1.07-5.104c0.451-0.773,1.301-1.684,2.545-2.732c1.242-1.043,2.861-1.605,4.859-1.685
			l-0.002-4.407C243.72,334.294,242.06,334.703,240.441,335.592z"/>
		<path fill="#0085B7" d="M267.179,334.236c-4.637-0.15-8.643,1.508-12.012,4.967c-3.369,3.469-5.055,7.578-5.055,12.337
			c0,0.036,0,0.113,0.004,0.231l0.008,27.9l4.184-0.001l-0.008-16.646c3.207,3.708,7.184,5.66,11.93,5.849
			c4.637,0.154,8.627-1.503,11.982-4.967c3.35-3.464,5.027-7.613,5.023-12.449c-0.004-4.638-1.559-8.643-4.67-12.006
			C275.457,336.09,271.662,334.352,267.179,334.236z M275.197,360.848c-2.424,2.485-5.332,3.732-8.742,3.732
			c-3.332,0.003-6.17-1.238-8.52-3.721c-2.35-2.486-3.559-5.477-3.639-8.974c-0.076-3.651,1.143-6.839,3.658-9.56
			c2.518-2.721,5.555-3.986,9.115-3.795c3.33,0.114,6.146,1.483,8.461,4.104c2.307,2.624,3.447,5.68,3.41,9.175
			C278.865,355.346,277.621,358.357,275.197,360.848z"/>
		<path fill="#0085B7" d="M326.136,351.43c0.148-4.604-1.357-8.593-4.525-11.977c-3.166-3.383-7.012-5.15-11.533-5.302
			c-4.68-0.189-8.688,1.448-12.037,4.913c-3.357,3.462-5.027,7.611-5.025,12.445c-0.002,4.641,1.563,8.643,4.676,12.006
			c3.117,3.36,6.891,5.118,11.322,5.27c5.064,0.153,9.342-1.821,12.83-5.924l0.006,5.163l4.295-0.004l-0.008-16.359V351.43z
			 M318.191,360.678c-2.514,2.696-5.541,3.97-9.09,3.816c-3.287-0.153-6.094-1.535-8.412-4.151
			c-2.326-2.615-3.457-5.665-3.381-9.156c0.037-3.523,1.262-6.534,3.678-9.014c2.418-2.483,5.344-3.728,8.781-3.726
			c3.289-0.004,6.098,1.236,8.443,3.714c2.342,2.478,3.555,5.462,3.631,8.953C321.917,354.797,320.699,357.982,318.191,360.678z"/>
		<path fill="#0085B7" d="M340.607,357.686l-0.01-18.679l7.461-0.007v-4.119l-7.461,0.006l-0.002-4.879l-4.295,0.002l0.01,28.432
			c0.008,6.848,3.926,10.269,11.766,10.262l-0.004-3.654C343.101,365.05,340.613,362.598,340.607,357.686z"/>
		<path fill="#0085B7" d="M361.804,357.672l-0.006-18.684l7.461-0.002l-0.006-4.122l-7.459,0.007l-0.004-4.876h-4.297l0.014,28.431
			c0.006,6.848,3.924,10.269,11.764,10.264l-0.002-3.656C364.294,365.036,361.806,362.586,361.804,357.672z"/>
		<path fill="#0085B7" d="M402.431,339.4c-3.127-3.383-6.934-5.152-11.418-5.301c-4.633-0.154-8.627,1.506-11.98,4.967
			c-3.35,3.462-5.023,7.614-5.025,12.445c0.006,4.643,1.561,8.646,4.672,12.01c3.109,3.359,6.906,5.095,11.389,5.209
			c4.635,0.157,8.641-1.5,12.01-4.965c3.371-3.464,5.055-7.574,5.053-12.333C407.13,346.794,405.564,342.782,402.431,339.4z
			 M399.185,360.647c-2.508,2.716-5.541,3.983-9.088,3.792c-3.326-0.113-6.139-1.484-8.443-4.102c-2.305-2.623-3.42-5.68-3.35-9.178
			c0.037-3.533,1.258-6.555,3.676-9.061c2.422-2.51,5.346-3.742,8.779-3.707c3.287-0.001,6.094,1.24,8.418,3.724
			c2.322,2.485,3.547,5.475,3.658,8.972C402.914,354.738,401.695,357.927,399.185,360.647z"/>
	</g>
</g>
<path fill-rule="evenodd" clip-rule="evenodd" fill="#171616" d="M300.037,24.035c52.002,10.254,71.865,47.998,70.662,86.036
	c-1.725,54.559-66.918,99.173-131.418,66.085l-2.117-17.647c53.326,24.846,97.564-8.142,99.203-58.259
	c0.781-23.93-17.666-65.996-57.668-66.123c-28.879-0.092-47.568,20.766-51.242,33.109c-12.705,42.691,10.088,151.947-2.26,183.16
	c-22.379,56.574-87.283,48.027-87.283,48.027c38.645-1.277,63.93-24.033,71.078-47.092c7.955-25.665-12.891-149.967-1.652-180.254
	C229.427,11.557,300.037,24.035,300.037,24.035z"/>
<path fill="none" d="M151.659,135.404c-7.276-0.148-14.418,0.561-21.303,2.024C137.206,136.154,144.335,135.459,151.659,135.404z"/>
<path fill="#171616" d="M62.695,200.237c12.89-15.503,34.135-26.495,58.868-29.216c10.703-9.109,25.062-14.914,42.987-14.041
	c16.348,0.797,20.646,3.971,30.746,6.862l-1.355-18.793c-10.451-4.064-15.6-5.817-26.008-7.884
	c-5.464-1.086-10.904-1.653-16.274-1.762c-7.323,0.055-14.453,0.75-21.303,2.024C96.875,144.545,69.512,169.472,62.695,200.237z"/>
<path fill="#0085B7" d="M62.695,200.237c-0.805,3.631-1.326,7.341-1.535,11.114c-1.279,23.137,6.141,56.468,39.32,71.283
	c-12.415-10.194-20.089-24.19-20.098-39.643c-0.012-15.744,7.931-29.98,20.742-40.23c3.515-11.633,10.351-23.154,20.438-31.74
	C96.83,173.742,75.584,184.734,62.695,200.237z"/>
<path fill="#7BB3E7" d="M80.382,242.992c0.009,15.452,7.683,29.448,20.098,39.643c14.237,6.356,33.212,9.308,58.285,6.576
	c-12.652,1.033-59.695-10.598-60.418-67.756c-0.075-5.958,0.857-12.342,2.777-18.693C88.313,213.012,80.371,227.248,80.382,242.992z
	"/>
</svg>
